<svg id="Layer_1_1_" enable-background="new 0 0 64 64" height="512" viewBox="0 0 64 64" width="512" xmlns="http://www.w3.org/2000/svg"><path d="m8 19h8c.55225 0 1-.44775 1-1v-3h-2v2h-6v-6h3v-2h-4c-.55225 0-1 .44775-1 1v8c0 .55225.44775 1 1 1z"/><path d="m12 13.58594-1.29297-1.29297-1.41406 1.41406 2 2c.19531.19531.45117.29297.70703.29297s.51172-.09766.70703-.29297l6-6-1.41406-1.41406z"/><path d="m15 30h-6v-6h3v-2h-4c-.55225 0-1 .44775-1 1v8c0 .55225.44775 1 1 1h8c.55225 0 1-.44775 1-1v-3h-2z"/><path d="m12 26.58594-1.29297-1.29297-1.41406 1.41406 2 2c.19531.19531.45117.29297.70703.29297s.51172-.09766.70703-.29297l6-6-1.41406-1.41406z"/><path d="m16 35h-8c-.55225 0-1 .44775-1 1v8c0 .55225.44775 1 1 1h8c.55225 0 1-.44775 1-1v-8c0-.55225-.44775-1-1-1zm-1 8h-6v-6h6z"/><path d="m16 48h-8c-.55225 0-1 .44775-1 1v8c0 .55225.44775 1 1 1h8c.55225 0 1-.44775 1-1v-8c0-.55225-.44775-1-1-1zm-1 8h-6v-6h6z"/><path d="m57.70703 5.29297c-.39062-.39062-1.02344-.39062-1.41406 0l-6.29297 6.29297-9.29297-9.29297c-.1875-.1875-.44189-.29297-.70703-.29297h-37c-.55225 0-1 .44775-1 1v58c0 .55225.44775 1 1 1h47c.55225 0 1-.44775 1-1v-39.58594l10.70703-10.70703c.39062-.39062.39062-1.02344 0-1.41406zm-8.70703 54.70703h-45v-56h35.58594l8 8h-6.58594v-5h-2v6c0 .55225.44775 1 1 1h7.58594l-23.29297 23.29297c-.10986.10986-.19238.24365-.2417.39062l-2 6c-.11963.35938-.02637.75586.2417 1.02344.19043.19092.44629.29297.70703.29297.10596 0 .2124-.0166.31641-.05127l6-2c.14697-.04932.28076-.13184.39062-.2417l19.29297-19.29297zm-23.56299-20.14893 1.71191 1.71191-2.56787.85596zm3.56299.73487-2.58594-2.58594 30.58594-30.58594 2.58594 2.58594z"/><path d="m45 56h2v2h-2z"/><path d="m41 56h2v2h-2z"/><path d="m37 56h2v2h-2z"/></svg>