<svg width="132" height="78" viewBox="0 0 132 78" fill="none" xmlns="http://www.w3.org/2000/svg">
<path d="M68.1662 17.6367C78.1962 21.6978 76.885 26.537 76.885 26.537C76.885 28.7314 75.299 30.5109 73.3343 30.5109H63.0039C61.0495 30.5109 59.4576 28.7314 59.4576 26.537C59.4576 26.537 58.1362 21.6978 68.1662 17.6367Z" fill="#FF8C00" stroke="#333333" stroke-miterlimit="10"/>
<path d="M68.1626 17.2882V13.0977" stroke="#333333" stroke-miterlimit="10" stroke-linecap="round" stroke-linejoin="round"/>
<path d="M57.9402 36.9483H79.1361V30.5112H57.9402V36.9483Z" fill="#FFE5C6" stroke="#333333" stroke-miterlimit="10"/>
<path d="M49.1675 72.7097H55.7455V46.9614H49.1675V72.7097Z" fill="#FFE5C6" stroke="#333333" stroke-miterlimit="10"/>
<path d="M52.8209 39.8096C58.6681 42.064 57.9043 44.7511 57.9043 44.7511C57.928 45.3135 57.7228 45.8621 57.3337 46.2766C56.9445 46.6911 56.4032 46.9375 55.8285 46.9619H49.8053C49.2321 46.9355 48.6929 46.6882 48.3056 46.2739C47.9182 45.8596 47.7143 45.3121 47.7383 44.7511C47.7383 44.7511 46.9679 42.064 52.8209 39.8096Z" stroke="#333333" stroke-miterlimit="10"/>
<path d="M52.9243 39.7394V37.1245" stroke="#333333" stroke-miterlimit="10" stroke-linecap="round" stroke-linejoin="round"/>
<path d="M80.5942 72.7097H87.1723V46.9614H80.5942V72.7097Z" fill="#FFE5C6" stroke="#333333" stroke-miterlimit="10"/>
<path d="M84.2531 39.8096C90.1003 42.064 89.3365 44.7511 89.3365 44.7511C89.3609 45.3132 89.1562 45.8617 88.7676 46.2762C88.3789 46.6908 87.838 46.9374 87.2637 46.9619H81.2397C81.1526 46.9624 81.0656 46.9562 80.9795 46.9433C80.4587 46.8522 79.989 46.5803 79.6566 46.1776C79.3242 45.775 79.1513 45.2685 79.1698 44.7511C79.1698 44.7511 78.7422 43.2491 80.9743 41.544C81.9777 40.8166 83.0817 40.2326 84.2531 39.8096V39.8096Z" fill="#FF8C00" stroke="#333333" stroke-miterlimit="10"/>
<path d="M84.1848 39.7394V37.1245" stroke="#333333" stroke-miterlimit="10" stroke-linecap="round" stroke-linejoin="round"/>
<path d="M80.0684 50.7852H55.7041" stroke="#333333" stroke-miterlimit="10"/>
<path d="M80.0684 50.7852H55.7041" stroke="#333333" stroke-miterlimit="10"/>
<path d="M55.7463 40.5132C55.7463 37.4713 58.3045 36.9492 61.4597 36.9492H74.8796C78.0386 36.9492 80.5967 37.4713 80.5967 40.5132V41.2406H55.7463V40.5132Z" fill="#FFE5C6" stroke="#333333" stroke-miterlimit="10"/>
<path d="M52.8209 39.8096C53.9865 40.2309 55.0857 40.8109 56.0858 41.5326C58.3377 43.2391 57.9072 44.7511 57.9072 44.7511C57.9252 45.2683 57.7522 45.7746 57.4198 46.1772C57.0875 46.5798 56.618 46.8518 56.0975 46.9433C56.0097 46.9561 55.921 46.9624 55.8322 46.9619H49.8053C49.2321 46.9355 48.6929 46.6882 48.3056 46.2739C47.9182 45.8596 47.7143 45.3121 47.7383 44.7511C47.7383 44.7511 46.9679 42.064 52.8209 39.8096Z" fill="#FF8C00" stroke="#333333" stroke-miterlimit="10"/>
<path d="M55.7463 46.9554C56.251 46.8724 56.7081 46.6139 57.0336 46.2275C57.3591 45.841 57.5311 45.3526 57.518 44.852C57.518 44.852 57.9492 43.4 55.7463 41.7622V41.2422H80.5967V41.775C78.4157 43.4086 78.8338 44.8505 78.8338 44.8505C78.8189 45.3504 78.9892 45.8387 79.3131 46.2255C79.6371 46.6123 80.0929 46.8715 80.5967 46.9554V50.5402H55.7463V46.9554Z" fill="#FFE5C6" stroke="#333333" stroke-miterlimit="10"/>
<path d="M55.7463 72.7107H80.5967V50.5386H55.7463V72.7107Z" stroke="#333333" stroke-miterlimit="10"/>
<path d="M64.5171 50.5386H55.7463V72.7107H64.5171V50.5386Z" fill="#FFE5C6"/>
<path d="M64.1504 50.8979H56.1106V72.3549H64.1504V50.8979Z" stroke="#333333" stroke-miterlimit="10"/>
<path d="M72.5534 50.5386H63.7827V72.7107H72.5534V50.5386Z" fill="#FFE5C6"/>
<path d="M72.1912 50.8979H64.1514V72.3549H72.1912V50.8979Z" stroke="#333333" stroke-miterlimit="10"/>
<path d="M80.5949 50.5386H71.8242V72.7107H80.5949V50.5386Z" fill="#FFE5C6"/>
<path d="M80.2332 50.8979H72.1934V72.3549H80.2332V50.8979Z" stroke="#333333" stroke-miterlimit="10"/>
<path d="M55.7463 72.7094H80.5967V68.418H55.7463V72.7094Z" fill="#FFE5C6" stroke="#333333" stroke-miterlimit="10"/>
<path d="M63.0989 44.6064V47.9752" stroke="#333333" stroke-miterlimit="10"/>
<path d="M68.0964 44.6064V47.9752" stroke="#333333" stroke-miterlimit="10"/>
<path d="M73.8279 44.6064V47.9752" stroke="#333333" stroke-miterlimit="10"/>
<path d="M106.554 56.2578H87.1733" stroke="#333333" stroke-miterlimit="10"/>
<path d="M87.1733 56.2604H106.177V50.5386H87.1733V56.2604Z" stroke="#333333" stroke-miterlimit="10"/>
<path d="M87.1733 72.7081H106.177V56.2578H87.1733V72.7081Z" fill="#FFE5C6" stroke="#333333" stroke-miterlimit="10"/>
<path d="M106.174 72.7097H112.752V46.9614H106.174V72.7097Z" fill="#FFE5C6" stroke="#333333" stroke-miterlimit="10"/>
<path d="M109.832 39.8096C103.985 42.064 104.749 44.7511 104.749 44.7511C104.737 45.0295 104.781 45.3074 104.878 45.5692C104.976 45.8309 105.125 46.0713 105.318 46.2766C105.51 46.4819 105.742 46.6481 106 46.7657C106.258 46.8833 106.537 46.9499 106.822 46.9619H112.846C113.42 46.9363 113.96 46.6892 114.347 46.2749C114.735 45.8605 114.94 45.3126 114.916 44.7511C114.916 44.7511 115.68 42.064 109.832 39.8096Z" fill="#FF8C00" stroke="#333333" stroke-miterlimit="10"/>
<path d="M109.598 39.7394V37.1245" stroke="#333333" stroke-miterlimit="10" stroke-linecap="round" stroke-linejoin="round"/>
<path d="M99.6461 60.5508H101.731C101.971 60.7271 102.167 60.9547 102.303 61.2162C102.439 61.4778 102.513 61.7664 102.518 62.0599V64.1269H98.8633V62.0599C98.8681 61.7667 98.9411 61.4784 99.0767 61.217C99.2124 60.9555 99.4071 60.7277 99.6461 60.5508V60.5508Z" fill="#FF8C00" stroke="#333333" stroke-miterlimit="10"/>
<path d="M98.8633 72.7094H102.518V68.418H98.8633V72.7094Z" fill="#FF8C00" stroke="#333333" stroke-miterlimit="10"/>
<path d="M91.6072 60.5508H93.6947C93.9346 60.7269 94.1301 60.9545 94.2661 61.2161C94.402 61.4778 94.4749 61.7664 94.4789 62.0599V64.1269H90.8245V62.0599C90.8285 61.7666 90.9011 61.478 91.0368 61.2164C91.1725 60.9548 91.3676 60.7271 91.6072 60.5508V60.5508Z" fill="#FF8C00" stroke="#333333" stroke-miterlimit="10"/>
<path d="M90.8245 72.7094H94.4789V68.418H90.8245V72.7094Z" fill="#FF8C00" stroke="#333333" stroke-miterlimit="10"/>
<path d="M87.1733 56.2604H93.7514V50.5386H87.1733V56.2604Z" fill="#FF8C00" stroke="#333333" stroke-miterlimit="10"/>
<path d="M93.7522 56.2604H99.5993V50.5386H93.7522V56.2604Z" fill="#FF8C00" stroke="#333333" stroke-miterlimit="10"/>
<path d="M99.5972 56.2604H106.175V50.5386H99.5972V56.2604Z" fill="#FF8C00" stroke="#333333" stroke-miterlimit="10"/>
<path d="M48.7107 72.7521H87.2108V70.4336H48.7107V72.7521Z" fill="#FFE5C6" stroke="#333333" stroke-miterlimit="10"/>
<path d="M30.1646 56.2578H49.5449" stroke="#333333" stroke-miterlimit="10"/>
<path d="M30.1646 72.7081H49.1678V56.2578H30.1646V72.7081Z" fill="#FFE5C6" stroke="#333333" stroke-miterlimit="10"/>
<path d="M30.1646 56.2604H49.1678V50.5386H30.1646V56.2604Z" stroke="#333333" stroke-miterlimit="10"/>
<path d="M23.5857 72.7097H30.1637V46.9614H23.5857V72.7097Z" fill="#FFE5C6" stroke="#333333" stroke-miterlimit="10"/>
<path d="M27.2392 39.8096C33.0863 42.064 32.3211 44.7511 32.3211 44.7511C32.346 45.313 32.1419 45.8615 31.7536 46.2761C31.3653 46.6907 30.8246 46.9374 30.2505 46.9619H24.225C23.6516 46.9357 23.112 46.6885 22.7243 46.2742C22.3366 45.86 22.1322 45.3124 22.1558 44.7511C22.1558 44.7511 21.392 42.064 27.2392 39.8096Z" fill="#FF8C00" stroke="#333333" stroke-miterlimit="10"/>
<path d="M26.7458 39.7394V37.1245" stroke="#333333" stroke-miterlimit="10" stroke-linecap="round" stroke-linejoin="round"/>
<path d="M36.6895 60.5508H34.5999C34.36 60.7269 34.1645 60.9545 34.0285 61.2161C33.8926 61.4778 33.8197 61.7664 33.8157 62.0599V64.1269H37.4701V62.0599C37.4662 61.7668 37.3938 61.4784 37.2586 61.2168C37.1233 60.9553 36.9286 60.7274 36.6895 60.5508V60.5508Z" fill="#FF8C00" stroke="#333333" stroke-miterlimit="10"/>
<path d="M33.8157 72.7094H37.4701V68.418H33.8157V72.7094Z" fill="#FF8C00" stroke="#333333" stroke-miterlimit="10"/>
<path d="M44.7289 60.5508H42.6414C42.4015 60.7269 42.206 60.9545 42.07 61.2161C41.9341 61.4778 41.8613 61.7664 41.8572 62.0599V64.1269H45.5116V62.0599C45.5076 61.7666 45.435 61.478 45.2993 61.2164C45.1636 60.9548 44.9685 60.7271 44.7289 60.5508V60.5508Z" fill="#FF8C00" stroke="#333333" stroke-miterlimit="10"/>
<path d="M41.8572 72.7094H45.5116V68.418H41.8572V72.7094Z" fill="#FF8C00" stroke="#333333" stroke-miterlimit="10"/>
<path d="M30.1646 56.2604H36.7426V50.5386H30.1646V56.2604Z" fill="#FF8C00" stroke="#333333" stroke-miterlimit="10"/>
<path d="M36.7434 56.2604H42.5905V50.5386H36.7434V56.2604Z" fill="#FF8C00" stroke="#333333" stroke-miterlimit="10"/>
<path d="M42.5886 56.2604H49.1667V50.5386H42.5886V56.2604Z" fill="#FF8C00" stroke="#333333" stroke-miterlimit="10"/>
<path d="M18.238 72.7886H118.833" stroke="#333333" stroke-linecap="round" stroke-linejoin="round"/>
</svg>
