<svg width="132" height="78" viewBox="0 0 132 78" fill="none" xmlns="http://www.w3.org/2000/svg">
<path d="M26.7693 72.9961H38.0445V52.9766H26.7693V72.9961Z" fill="white"/>
<path d="M26.7693 72.2812H38.0445V52.9766H26.7693V72.2812Z" fill="#FF6B00" stroke="#333333" stroke-miterlimit="10" stroke-linecap="round" stroke-linejoin="round"/>
<path d="M30.2358 44.3989L26.7693 52.979H38.0445L34.5807 44.3989H30.2358Z" fill="#FFF2EB"/>
<path d="M38.0445 52.979H26.7693L30.2358 44.3989H34.5807L38.0445 52.979Z" stroke="#333333" stroke-miterlimit="10" stroke-linecap="round" stroke-linejoin="round"/>
<path d="M30.2915 44.3991H34.5195V42.2539L34.396 41.5391H30.2915V44.3991Z" fill="#FFF2EB"/>
<path d="M30.2915 44.3991H34.5195V41.5391H30.2915V44.3991Z" stroke="#333333" stroke-miterlimit="10" stroke-linecap="round" stroke-linejoin="round"/>
<path d="M26.7693 63.7012H38.0445V52.9766H26.7693V63.7012Z" fill="#FF6B00"/>
<path d="M26.7693 63.7012H38.0445V52.9766H26.7693V63.7012Z" stroke="#333333" stroke-miterlimit="10" stroke-linecap="round" stroke-linejoin="round"/>
<path d="M30.1953 72.4013V67.9579C30.1953 67.1264 31.174 66.4541 32.3864 66.4541C33.5987 66.4541 34.5774 67.1264 34.5774 67.9579V72.4013H30.1953Z" fill="#FFDE99"/>
<path d="M30.1953 72.2847V67.9275C30.1953 67.1125 31.174 66.4541 32.3864 66.4541C33.5987 66.4541 34.5774 67.1125 34.5774 67.9275V72.2847H30.1953Z" stroke="#333333" stroke-miterlimit="10" stroke-linecap="round" stroke-linejoin="round"/>
<path d="M30.1953 63.7044V57.162C30.1953 56.2862 31.174 55.5786 32.3864 55.5786C33.5987 55.5786 34.5774 56.2862 34.5774 57.162V63.7044H30.1953Z" fill="#FFDE99"/>
<path d="M30.1953 63.7044V57.162C30.1953 56.2862 31.174 55.5786 32.3864 55.5786C33.5987 55.5786 34.5774 56.2862 34.5774 57.162V63.7044H30.1953Z" stroke="#333333" stroke-miterlimit="10" stroke-linecap="round" stroke-linejoin="round"/>
<path d="M60.9858 72.2817H72.4138V35.5078H60.9858V72.2817Z" fill="#FF6B00" stroke="#333333" stroke-miterlimit="10" stroke-linecap="round" stroke-linejoin="round"/>
<path d="M72.4138 35.5088H60.9858L64.4948 25.25H68.9008L72.4138 35.5088Z" fill="#FFF2EB"/>
<path d="M72.4138 35.5088H60.9858L64.4948 25.25H68.9008L72.4138 35.5088Z" stroke="#333333" stroke-miterlimit="10" stroke-linecap="round" stroke-linejoin="round"/>
<path d="M64.4878 25.252H68.9117V22.0786H64.4878V25.252Z" fill="#FFF2EB"/>
<path d="M64.4878 25.252H68.9117V22.0786H64.4878V25.252Z" stroke="#333333" stroke-miterlimit="10" stroke-linecap="round" stroke-linejoin="round"/>
<path d="M66.6982 22.0769V16.7383" stroke="#333333" stroke-miterlimit="10" stroke-linecap="round" stroke-linejoin="round"/>
<path d="M64.4878 72.1707H68.4051V66.563H64.4878V72.1707Z" fill="#FFDE99" stroke="#333333" stroke-miterlimit="10"/>
<path d="M68.8586 52.4297V47.9894C68.8586 47.1525 67.8819 46.4844 66.6715 46.4844C65.4611 46.4844 64.4878 47.1525 64.4878 47.9894V52.4297H68.8586Z" fill="#FFDE99"/>
<path d="M68.8586 52.4297V47.9894C68.8586 47.1525 67.8819 46.4844 66.6715 46.4844C65.4611 46.4844 64.4878 47.1525 64.4878 47.9894V52.4297H68.8586Z" stroke="#333333" stroke-miterlimit="10" stroke-linecap="round" stroke-linejoin="round"/>
<path d="M60.9604 63.3067H72.3884V52.4297H60.9604V63.3067Z" fill="#FF6B00"/>
<path d="M60.9604 63.3067H72.3884V52.4297H60.9604V63.3067Z" stroke="#333333" stroke-miterlimit="10" stroke-linecap="round" stroke-linejoin="round"/>
<path d="M68.8586 63.3075V57.0846C68.8586 56.2501 67.8819 55.582 66.6715 55.582C65.4611 55.582 64.4878 56.2501 64.4878 57.0846V63.3075H68.8586Z" fill="#FFDE99"/>
<path d="M68.8586 63.3075V57.0846C68.8586 56.2501 67.8819 55.582 66.6715 55.582C65.4611 55.582 64.4878 56.2501 64.4878 57.0846V63.3075H68.8586Z" stroke="#333333" stroke-miterlimit="10" stroke-linecap="round" stroke-linejoin="round"/>
<path d="M68.6779 41.1859C68.7033 41.6954 68.507 42.1934 68.132 42.5709C67.7569 42.9483 67.2337 43.1745 66.6767 43.1998C66.1189 43.1754 65.5945 42.9497 65.2182 42.5722C64.842 42.1947 64.6447 41.6962 64.6696 41.1859C64.6445 40.6755 64.8418 40.1769 65.218 39.7993C65.5943 39.4218 66.1189 39.1961 66.6767 39.1719C67.2338 39.1969 67.7573 39.423 68.1324 39.8005C68.5075 40.178 68.7037 40.6762 68.6779 41.1859" fill="#FFDE99"/>
<path d="M68.6779 41.1859C68.7033 41.6954 68.507 42.1934 68.132 42.5709C67.7569 42.9483 67.2337 43.1745 66.6767 43.1998C66.1189 43.1754 65.5945 42.9497 65.2182 42.5722C64.842 42.1947 64.6447 41.6962 64.6696 41.1859C64.6445 40.6755 64.8418 40.1769 65.218 39.7993C65.5943 39.4218 66.1189 39.1961 66.6767 39.1719C67.2338 39.1969 67.7573 39.423 68.1324 39.8005C68.5075 40.178 68.7037 40.6762 68.6779 41.1859V41.1859Z" stroke="#333333" stroke-miterlimit="10" stroke-linecap="round" stroke-linejoin="round"/>
<path d="M95.2302 72.4018H106.687V52.4297H95.2302V72.4018Z" fill="white"/>
<path d="M95.2302 52.4269H106.687L103.167 43.8633H98.7492L95.2302 52.4269Z" fill="#FFF2EB"/>
<path d="M95.2302 52.4269H106.687L103.167 43.8633H98.7492L95.2302 52.4269Z" stroke="#333333" stroke-miterlimit="10" stroke-linecap="round" stroke-linejoin="round"/>
<path d="M98.7322 43.8653H103.187V40.6919H98.7322V43.8653Z" fill="#FFF2EB"/>
<path d="M98.7322 43.8653H103.187V40.6919H98.7322V43.8653Z" stroke="#333333" stroke-miterlimit="10" stroke-linecap="round" stroke-linejoin="round"/>
<path d="M95.2302 63.3055H106.687V52.4297H95.2302V63.3055Z" fill="#FF6B00"/>
<path d="M95.2302 63.3055H106.687V52.4297H95.2302V63.3055Z" stroke="#333333" stroke-miterlimit="10" stroke-linecap="round" stroke-linejoin="round"/>
<path d="M95.2302 72.2813H106.687V63.3047H95.2302V72.2813Z" fill="#FF6B00" stroke="#333333" stroke-miterlimit="10" stroke-linecap="round" stroke-linejoin="round"/>
<path d="M103.15 72.2847V67.9275C103.15 67.1125 102.172 66.4541 100.959 66.4541C99.7456 66.4541 98.7676 67.1125 98.7676 67.9275V72.2847H103.15Z" fill="#FFDE99" stroke="#333333" stroke-miterlimit="10" stroke-linecap="round" stroke-linejoin="round"/>
<path d="M103.15 63.3078V57.0848C103.15 56.2522 102.172 55.5786 100.959 55.5786C99.7456 55.5786 98.7676 56.2522 98.7676 57.0848V63.3078H103.15Z" fill="#FFDE99"/>
<path d="M103.15 63.3078V57.0848C103.15 56.2522 102.172 55.5786 100.959 55.5786C99.7456 55.5786 98.7676 56.2522 98.7676 57.0848V63.3078H103.15Z" stroke="#333333" stroke-miterlimit="10" stroke-linecap="round" stroke-linejoin="round"/>
<path d="M72.6782 72.2822H95.2293V52.4297H72.6782V72.2822Z" fill="#FF6B00" stroke="#333333" stroke-miterlimit="10" stroke-linecap="round" stroke-linejoin="round"/>
<path d="M72.3855 56.9781H95.2254V52.4297H72.3855V56.9781Z" fill="#FFF2EB"/>
<path d="M72.3855 56.9781H95.2254V52.4297H72.3855V56.9781Z" stroke="#333333" stroke-miterlimit="10" stroke-linecap="round" stroke-linejoin="round"/>
<path d="M72.3855 64.2861H95.2254V56.9814H72.3855V64.2861Z" fill="#FF6B00"/>
<path d="M72.3855 64.2861H95.2254V56.9814H72.3855V64.2861Z" stroke="#333333" stroke-miterlimit="10" stroke-linecap="round" stroke-linejoin="round"/>
<path d="M76.8064 72.2819H81.7103V67.9922H76.8064V72.2819Z" fill="#FFDE99" stroke="#333333" stroke-miterlimit="10"/>
<path d="M81.5268 64.2836V60.7434C81.5268 60.0055 80.4425 59.4072 79.1027 59.4072C77.7628 59.4072 76.6799 60.0055 76.6799 60.7434V64.2836H81.5268Z" fill="#FFDE99"/>
<path d="M81.5268 64.2836V60.7434C81.5268 60.0055 80.4425 59.4072 79.1027 59.4072C77.7628 59.4072 76.6799 60.0055 76.6799 60.7434V64.2836H81.5268Z" stroke="#333333" stroke-miterlimit="10" stroke-linecap="round" stroke-linejoin="round"/>
<path d="M85.9651 72.2819H90.869V67.9922H85.9651V72.2819Z" fill="#FFDE99" stroke="#333333" stroke-miterlimit="10"/>
<path d="M90.8887 64.2836V60.7434C90.8887 60.0055 89.8012 59.4072 88.464 59.4072C87.1268 59.4072 86.0386 60.0055 86.0386 60.7434V64.2836H90.8887Z" fill="#FFDE99"/>
<path d="M90.8887 64.2836V60.7434C90.8887 60.0055 89.8012 59.4072 88.464 59.4072C87.1268 59.4072 86.0386 60.0055 86.0386 60.7434V64.2836H90.8887Z" stroke="#333333" stroke-miterlimit="10" stroke-linecap="round" stroke-linejoin="round"/>
<path d="M38.1128 72.4018H60.958V52.4297H38.1128V72.4018Z" fill="white"/>
<path d="M38.1128 72.4018H60.958V52.4297H38.1128V72.4018Z" fill="#FF6B00"/>
<path d="M38.1182 72.2822H60.9581V52.4297H38.1182V72.2822Z" stroke="#333333" stroke-miterlimit="10" stroke-linecap="round" stroke-linejoin="round"/>
<path d="M38.1133 56.9781H60.9585V52.4297H38.1133V56.9781Z" fill="#FFF2EB"/>
<path d="M38.1133 56.9781H60.9585V52.4297H38.1133V56.9781Z" stroke="#333333" stroke-miterlimit="10" stroke-linecap="round" stroke-linejoin="round"/>
<path d="M38.1133 64.2861H60.9585V56.9814H38.1133V64.2861Z" fill="#FF6B00"/>
<path d="M38.1133 64.2861H60.9585V56.9814H38.1133V64.2861Z" stroke="#333333" stroke-miterlimit="10" stroke-linecap="round" stroke-linejoin="round"/>
<path d="M52.0144 71.9794H56.9183V67.9922H52.0144V71.9794Z" fill="#FFDE99" stroke="#333333" stroke-miterlimit="10"/>
<path d="M51.812 64.2836V60.7434C51.812 60.0055 52.8969 59.4072 54.2374 59.4072C55.5779 59.4072 56.6648 60.0055 56.6648 60.7434V64.2836H51.812Z" fill="#FFDE99"/>
<path d="M51.812 64.2836V60.7434C51.812 60.0055 52.8969 59.4072 54.2374 59.4072C55.5779 59.4072 56.6648 60.0055 56.6648 60.7434V64.2836H51.812Z" stroke="#333333" stroke-miterlimit="10" stroke-linecap="round" stroke-linejoin="round"/>
<path d="M42.3975 71.9782H47.3034V67.9922H42.3975V71.9782Z" fill="#FFDE99" stroke="#333333" stroke-miterlimit="10"/>
<path d="M42.4558 64.2836V60.7434C42.4558 60.0055 43.5407 59.4072 44.8786 59.4072C46.2164 59.4072 47.3027 60.0055 47.3027 60.7434V64.2836H42.4558Z" fill="#FFDE99"/>
<path d="M42.4558 64.2836V60.7434C42.4558 60.0055 43.5407 59.4072 44.8786 59.4072C46.2164 59.4072 47.3027 60.0055 47.3027 60.7434V64.2836H42.4558Z" stroke="#333333" stroke-miterlimit="10" stroke-linecap="round" stroke-linejoin="round"/>
<path d="M22.1204 72.2803H113.082" stroke="#333333" stroke-linecap="round" stroke-linejoin="round"/>
</svg>
