<svg width="132" height="78" viewBox="0 0 132 78" fill="none" xmlns="http://www.w3.org/2000/svg">
<g clip-path="url(#clip0)">
<path d="M72.5598 46.4761C72.5239 44.4651 71.6912 42.5505 70.2448 41.1528C68.7984 39.7551 66.8564 38.9886 64.8453 39.0216C62.834 38.9878 60.8916 39.7541 59.4452 41.152C57.9987 42.5498 57.1665 44.4649 57.1315 46.4761H42.428V31.5312H87.2626V46.4761H72.5598Z" fill="#FFDE99" stroke="#333333" stroke-miterlimit="10" stroke-linecap="round" stroke-linejoin="round"/>
<path d="M78.4961 16.2126H83.5265V22.5641H46.9116V16.2126H51.9443V12.3635C54.5783 12.309 59.4414 12.028 61.4829 11.0177C61.7608 10.8795 62.0127 10.7084 62.2682 10.5492L62.2891 10.538C63.1867 10.0518 64.1992 9.81788 65.2191 9.861C66.2381 9.81896 67.2496 10.0529 68.1468 10.538L68.167 10.5492C68.4218 10.7084 68.6743 10.8795 68.9523 11.0177C70.9938 12.031 75.8576 12.309 78.4931 12.3628V16.2126H78.4961Z" fill="#FFDE99"/>
<path d="M78.4961 16.2126H83.5265V22.5641H46.9116V16.2126H51.9443V12.3635C54.5783 12.309 59.4414 12.028 61.4829 11.0177C61.7608 10.8795 62.0127 10.7084 62.2682 10.5492L62.2891 10.538C63.1867 10.0518 64.1992 9.81788 65.2191 9.861C66.2381 9.81896 67.2496 10.0529 68.1468 10.538L68.167 10.5492C68.4218 10.7084 68.6743 10.8795 68.9523 11.0177C70.9938 12.031 75.8576 12.309 78.4931 12.3628V16.2126H78.4961Z" stroke="#333333" stroke-miterlimit="10" stroke-linecap="round" stroke-linejoin="round"/>
<path d="M53.636 38.2578C53.636 38.7012 53.5046 39.1346 53.2582 39.5033C53.0119 39.8719 52.6618 40.1593 52.2522 40.3289C51.8426 40.4986 51.3918 40.543 50.957 40.4565C50.5221 40.37 50.1227 40.1565 49.8092 39.843C49.4957 39.5295 49.2822 39.13 49.1957 38.6952C49.1092 38.2603 49.1536 37.8096 49.3232 37.4C49.4929 36.9903 49.7802 36.6402 50.1489 36.3939C50.5175 36.1476 50.9509 36.0161 51.3943 36.0161C51.9889 36.0161 52.5591 36.2523 52.9795 36.6727C53.3999 37.0931 53.636 37.6633 53.636 38.2578Z" fill="#FF8C00"/>
<path d="M53.636 38.2578C53.636 38.7012 53.5046 39.1346 53.2582 39.5033C53.0119 39.8719 52.6618 40.1593 52.2522 40.3289C51.8426 40.4986 51.3918 40.543 50.957 40.4565C50.5221 40.37 50.1227 40.1565 49.8092 39.843C49.4957 39.5295 49.2822 39.13 49.1957 38.6952C49.1092 38.2603 49.1536 37.8096 49.3232 37.4C49.4929 36.9903 49.7802 36.6402 50.1489 36.3939C50.5175 36.1476 50.9509 36.0161 51.3943 36.0161C51.9889 36.0161 52.5591 36.2523 52.9795 36.6727C53.3999 37.0931 53.636 37.6633 53.636 38.2578Z" stroke="#333333" stroke-miterlimit="10" stroke-linecap="round" stroke-linejoin="round"/>
<path d="M79.7903 38.2578C79.7903 38.7012 79.6589 39.1346 79.4125 39.5033C79.1662 39.8719 78.8161 40.1593 78.4065 40.3289C77.9969 40.4986 77.5461 40.543 77.1113 40.4565C76.6764 40.37 76.277 40.1565 75.9635 39.843C75.65 39.5295 75.4365 39.13 75.35 38.6952C75.2635 38.2603 75.3079 37.8096 75.4775 37.4C75.6472 36.9903 75.9345 36.6402 76.3032 36.3939C76.6718 36.1476 77.1052 36.0161 77.5486 36.0161C78.1432 36.0161 78.7133 36.2523 79.1338 36.6727C79.5542 37.0931 79.7903 37.6633 79.7903 38.2578Z" fill="#FF8C00"/>
<path d="M79.7903 38.2578C79.7903 38.7012 79.6589 39.1346 79.4125 39.5033C79.1662 39.8719 78.8161 40.1593 78.4065 40.3289C77.9969 40.4986 77.5461 40.543 77.1113 40.4565C76.6764 40.37 76.277 40.1565 75.9635 39.843C75.65 39.5295 75.4365 39.13 75.35 38.6952C75.2635 38.2603 75.3079 37.8096 75.4775 37.4C75.6472 36.9903 75.9345 36.6402 76.3032 36.3939C76.6718 36.1476 77.1052 36.0161 77.5486 36.0161C78.1432 36.0161 78.7133 36.2523 79.1338 36.6727C79.5542 37.0931 79.7903 37.6633 79.7903 38.2578Z" stroke="#333333" stroke-miterlimit="10" stroke-linecap="round" stroke-linejoin="round"/>
<path d="M87.2622 25.9266C87.2676 26.0684 87.245 26.2098 87.1957 26.3429C87.1465 26.476 87.0715 26.598 86.975 26.7021C86.8786 26.8062 86.7625 26.8903 86.6336 26.9495C86.5047 27.0088 86.3653 27.042 86.2235 27.0474H43.4655C43.3237 27.0421 43.1844 27.0089 43.0554 26.9497C42.9265 26.8905 42.8105 26.8064 42.7141 26.7023C42.6177 26.5982 42.5427 26.4761 42.4936 26.3429C42.4444 26.2098 42.422 26.0683 42.4276 25.9266V23.6848C42.4169 23.3986 42.5202 23.1199 42.7147 22.9097C42.9093 22.6996 43.1793 22.5752 43.4655 22.564H86.2235C86.5098 22.5752 86.7798 22.6996 86.9746 22.9097C87.1693 23.1198 87.2727 23.3986 87.2622 23.6848V25.9266Z" fill="#FF8C00"/>
<path d="M87.2622 25.9266C87.2676 26.0684 87.245 26.2098 87.1957 26.3429C87.1465 26.476 87.0715 26.598 86.975 26.7021C86.8786 26.8062 86.7625 26.8903 86.6336 26.9495C86.5047 27.0088 86.3653 27.042 86.2235 27.0474H43.4655C43.3237 27.0421 43.1844 27.0089 43.0554 26.9497C42.9265 26.8905 42.8105 26.8064 42.7141 26.7023C42.6177 26.5982 42.5427 26.4761 42.4936 26.3429C42.4444 26.2098 42.422 26.0683 42.4276 25.9266V23.6848C42.4169 23.3986 42.5202 23.1199 42.7147 22.9097C42.9093 22.6996 43.1793 22.5752 43.4655 22.564H86.2235C86.5098 22.5752 86.7798 22.6996 86.9746 22.9097C87.1693 23.1198 87.2727 23.3986 87.2622 23.6848V25.9266Z" stroke="#333333" stroke-miterlimit="10" stroke-linecap="round" stroke-linejoin="round"/>
<path d="M88.757 30.3917C88.7719 30.6791 88.672 30.9607 88.4793 31.1745C88.2866 31.3883 88.017 31.5169 87.7295 31.532H41.9639C41.6762 31.5169 41.4062 31.3884 41.2131 31.1747C41.02 30.961 40.9194 30.6794 40.9334 30.3917V27.4416C40.92 27.154 41.0208 26.8728 41.2138 26.6592C41.4068 26.4456 41.6764 26.3169 41.9639 26.3013H87.7295C88.0168 26.3169 88.2861 26.4457 88.4786 26.6594C88.6712 26.873 88.7713 27.1543 88.757 27.4416V30.3917Z" fill="#FF8C00"/>
<path d="M88.757 30.3917C88.7719 30.6791 88.672 30.9607 88.4793 31.1745C88.2866 31.3883 88.017 31.5169 87.7295 31.532H41.9639C41.6762 31.5169 41.4062 31.3884 41.2131 31.1747C41.02 30.961 40.9194 30.6794 40.9334 30.3917V27.4416C40.92 27.154 41.0208 26.8728 41.2138 26.6592C41.4068 26.4456 41.6764 26.3169 41.9639 26.3013H87.7295C88.0168 26.3169 88.2861 26.4457 88.4786 26.6594C88.6712 26.873 88.7713 27.1543 88.757 27.4416V30.3917Z" stroke="#333333" stroke-miterlimit="10" stroke-linecap="round" stroke-linejoin="round"/>
<path d="M58.8667 48.546C58.8528 48.8031 58.7374 49.0441 58.5459 49.2162C58.3543 49.3882 58.1023 49.4772 57.8452 49.4636H41.9558C41.8284 49.4705 41.7009 49.4523 41.5805 49.41C41.4601 49.3676 41.3492 49.3019 41.2542 49.2167C41.1592 49.1315 41.0819 49.0284 41.0268 48.9133C40.9717 48.7982 40.9397 48.6734 40.9329 48.546V47.3885C40.9477 47.1318 41.0637 46.8914 41.2555 46.7201C41.4472 46.5488 41.6991 46.4605 41.9558 46.4746H57.8452C58.1017 46.4609 58.3532 46.5494 58.5446 46.7207C58.736 46.8919 58.8518 47.1321 58.8667 47.3885V48.546Z" fill="#FF8C00"/>
<path d="M58.8667 48.546C58.8528 48.8031 58.7374 49.0441 58.5459 49.2162C58.3543 49.3882 58.1023 49.4772 57.8452 49.4636H41.9558C41.8284 49.4705 41.7009 49.4523 41.5805 49.41C41.4601 49.3676 41.3492 49.3019 41.2542 49.2167C41.1592 49.1315 41.0819 49.0284 41.0268 48.9133C40.9717 48.7982 40.9397 48.6734 40.9329 48.546V47.3885C40.9477 47.1318 41.0637 46.8914 41.2555 46.7201C41.4472 46.5488 41.6991 46.4605 41.9558 46.4746H57.8452C58.1017 46.4609 58.3532 46.5494 58.5446 46.7207C58.736 46.8919 58.8518 47.1321 58.8667 47.3885V48.546Z" stroke="#333333" stroke-miterlimit="10" stroke-linecap="round" stroke-linejoin="round"/>
<path d="M88.7568 48.5458C88.7429 48.8028 88.6276 49.0437 88.4363 49.2158C88.2449 49.3878 87.9931 49.4769 87.7361 49.4635H71.8407C71.5843 49.4761 71.3332 49.3866 71.1425 49.2147C70.9518 49.0427 70.8369 48.8023 70.823 48.5458V47.3884C70.8379 47.1326 70.9531 46.8931 71.1438 46.7219C71.3344 46.5508 71.5849 46.4618 71.8407 46.4745H87.7361C87.9925 46.461 88.2437 46.5496 88.435 46.7208C88.6263 46.8921 88.742 47.1321 88.7568 47.3884V48.5458Z" fill="#FF8C00"/>
<path d="M88.7568 48.5458C88.7429 48.8028 88.6276 49.0437 88.4363 49.2158C88.2449 49.3878 87.9931 49.4769 87.7361 49.4635H71.8407C71.5843 49.4761 71.3332 49.3866 71.1425 49.2147C70.9518 49.0427 70.8369 48.8023 70.823 48.5458V47.3884C70.8379 47.1326 70.9531 46.8931 71.1438 46.7219C71.3344 46.5508 71.5849 46.4618 71.8407 46.4745H87.7361C87.9925 46.461 88.2437 46.5496 88.435 46.7208C88.6263 46.8921 88.742 47.1321 88.7568 47.3884V48.5458Z" stroke="#333333" stroke-miterlimit="10" stroke-linecap="round" stroke-linejoin="round"/>
<path d="M72.3179 72.6294H87.2627V49.4648H72.3179V72.6294Z" fill="#FFDE99"/>
<path d="M72.3179 72.6294H87.2627V49.4648H72.3179V72.6294Z" stroke="#333333" stroke-miterlimit="10" stroke-linecap="round" stroke-linejoin="round"/>
<path d="M42.428 72.6294H57.3728V49.4648H42.428V72.6294Z" fill="#FFDE99"/>
<path d="M42.428 72.6294H57.3728V49.4648H42.428V72.6294Z" stroke="#333333" stroke-miterlimit="10" stroke-linecap="round" stroke-linejoin="round"/>
<path d="M72.243 49.8403H71.5383C71.406 49.8395 71.2752 49.8126 71.1533 49.7612C71.0315 49.7098 70.9209 49.6349 70.8281 49.5407C70.7352 49.4465 70.6618 49.3349 70.6121 49.2123C70.5624 49.0897 70.5374 48.9585 70.5385 48.8263V47.5485C70.5323 47.2632 70.6305 46.9854 70.8146 46.7673C70.9987 46.5493 71.256 46.4059 71.5383 46.3641H72.3177C72.3148 45.3872 72.1181 44.4205 71.7388 43.5202C71.3596 42.6199 70.8053 41.8038 70.1083 41.1193C69.4113 40.4347 68.5853 39.8954 67.6783 39.5325C66.7712 39.1696 65.8012 38.9904 64.8243 39.0052C63.8495 38.9916 62.8818 39.172 61.9774 39.536C61.073 39.9 60.2501 40.4403 59.5566 41.1255C58.8631 41.8106 58.3129 42.6269 57.938 43.5268C57.5631 44.4267 57.3709 45.3922 57.3728 46.3671H58.1111C58.3939 46.4085 58.6518 46.5517 58.8366 46.7697C59.0213 46.9878 59.1202 47.2657 59.1146 47.5515V48.8293C59.1154 49.0963 59.0102 49.3528 58.822 49.5424C58.6339 49.7319 58.3782 49.8391 58.1111 49.8403H57.3728V72.6312H72.243V49.8403Z" stroke="#333333" stroke-miterlimit="10" stroke-linecap="round" stroke-linejoin="round"/>
<rect x="46.6628" y="54.8208" width="7.21968" height="13.9449" rx="1.5" fill="#FF8C00" stroke="#333333" stroke-linecap="round" stroke-linejoin="round"/>
<rect x="59.3667" y="16.7114" width="11.7031" height="1.98897" rx="0.994486" fill="#FF8C00" stroke="#333333" stroke-linecap="round" stroke-linejoin="round"/>
<rect x="76.5525" y="54.8208" width="7.21967" height="13.9449" rx="1.5" fill="#FF8C00" stroke="#333333" stroke-linecap="round" stroke-linejoin="round"/>
</g>
<line x1="33.2126" y1="72.4971" x2="97.2228" y2="72.4971" stroke="#333333" stroke-linecap="round" stroke-linejoin="round"/>
<defs>
<clipPath id="clip0">
<rect x="40.1851" y="9.48486" width="49.3181" height="63.5157" fill="white"/>
</clipPath>
</defs>
</svg>
