<svg width="132" height="78" viewBox="0 0 132 78" fill="none" xmlns="http://www.w3.org/2000/svg">
<ellipse cx="46.4614" cy="24.8316" rx="2.55755" ry="2.46685" fill="#B5F3F2" stroke="#333333" stroke-linecap="round"/>
<ellipse cx="85.9765" cy="23.3052" rx="2.55754" ry="2.46685" fill="#B5F3F2" stroke="#333333" stroke-linecap="round"/>
<path d="M54.4038 46.6676L66.029 24.2417L77.6542 46.6676L73.7792 57.8806H58.2789L54.4038 46.6676Z" fill="#FFEF85" stroke="#333333" stroke-linecap="round" stroke-linejoin="round"/>
<path d="M66.0315 23.8867L66.0315 39.1325" stroke="#333333" stroke-linecap="round" stroke-linejoin="round"/>
<path d="M54.4048 46.6685H60.2174M77.1708 46.6685H71.8426" stroke="#333333" stroke-linecap="round" stroke-linejoin="round"/>
<ellipse cx="66.0306" cy="41.9951" rx="2.9063" ry="2.80324" fill="#FF8C00" stroke="#333333" stroke-linecap="round" stroke-linejoin="round"/>
<rect x="54.4038" y="57.8809" width="22.1288" height="7.62288" rx="3.81144" fill="#38C1C9" stroke="#333333" stroke-linecap="round" stroke-linejoin="round"/>
<rect x="58.1289" y="65.5103" width="15.8063" height="6.09832" fill="#0598A8" stroke="#333333" stroke-linecap="round" stroke-linejoin="round"/>
<rect x="90.2483" y="39.1919" width="5.8126" height="5.60647" fill="#FF8C00" stroke="#333333" stroke-linecap="round" stroke-linejoin="round"/>
<rect x="36" y="39.1919" width="5.8126" height="5.60647" fill="#FF8C00" stroke="#333333" stroke-linecap="round" stroke-linejoin="round"/>
<path d="M63.1273 13.0288L43.9038 13.2134" stroke="#333333" stroke-linecap="round" stroke-linejoin="round"/>
<path d="M68.9338 13.0308L88.1561 13.2154" stroke="#333333" stroke-linecap="round" stroke-linejoin="round"/>
<path d="M48.1637 22.0249C52.1512 16.8518 57.8092 13.7624 62.1546 13.0284" stroke="#333333" stroke-linecap="round" stroke-linejoin="round"/>
<path d="M39.1952 38.3826C39.1952 35.8675 41.4025 28.7062 43.9001 26.261" stroke="#333333" stroke-linecap="round" stroke-linejoin="round"/>
<path d="M93.5027 38.3842C93.5023 35.6927 91.013 28.0289 88.1972 25.4118" stroke="#333333" stroke-linecap="round" stroke-linejoin="round"/>
<path d="M83.7059 22.1622C79.572 16.8042 73.585 13.6915 68.94 13.0317" stroke="#333333" stroke-linecap="round" stroke-linejoin="round"/>
<ellipse cx="91.023" cy="13.4047" rx="2.32505" ry="2.2426" fill="#38C1C9" stroke="#333333" stroke-linecap="round"/>
<ellipse cx="41.0365" cy="13.4047" rx="2.32504" ry="2.2426" fill="#38C1C9" stroke="#333333" stroke-linecap="round"/>
<rect x="63.4768" y="9.92871" width="5.1151" height="4.9337" fill="#FF8C00" stroke="#333333" stroke-linecap="round" stroke-linejoin="round"/>
</svg>
