<svg width="132" height="78" viewBox="0 0 132 78" fill="none" xmlns="http://www.w3.org/2000/svg">
<path d="M59.053 58.6338L55.5793 67.318H75.2731H75.553H76.4215L72.9478 58.6338H59.053Z" fill="#38C1C9"/>
<rect x="34.7368" y="11.7368" width="62.5263" height="46.8947" rx="3" fill="#FFEF85" stroke="#333333" stroke-linecap="round" stroke-linejoin="round"/>
<path d="M34.7378 49.9453H97.2641V55.6295C97.2641 57.2864 95.921 58.6295 94.2641 58.6295H37.7378C36.0809 58.6295 34.7378 57.2864 34.7378 55.6295V49.9453Z" fill="#B5F3F2" stroke="#333333" stroke-linecap="round" stroke-linejoin="round"/>
<line x1="35.5005" y1="50.5024" x2="96.5005" y2="50.5024" stroke="#333333" stroke-linecap="round" stroke-linejoin="round"/>
<line x1="58.3165" y1="58.6325" x2="55.6327" y2="66.6838" stroke="#333333" stroke-linecap="round" stroke-linejoin="round"/>
<line x1="0.5" y1="-0.5" x2="8.98685" y2="-0.5" transform="matrix(0.31623 0.948683 0.948684 -0.316226 73.9998 58)" stroke="#333333" stroke-linecap="round" stroke-linejoin="round"/>
<path d="M45.158 69.0528C45.158 68.0935 45.9356 67.3159 46.8948 67.3159H85.1053C86.0646 67.3159 86.8422 68.0935 86.8422 69.0528V69.0528C86.8422 70.012 86.0646 70.7896 85.1053 70.7896H46.8948C45.9356 70.7896 45.158 70.012 45.158 69.0528V69.0528Z" fill="#0598A8" stroke="#333333" stroke-linecap="round" stroke-linejoin="round"/>
<g clip-path="url(#clip0)">
<path d="M68.5397 21.2537C68.5407 21.2529 68.5425 21.2515 68.5455 21.2496L68.5569 21.2527L69.5639 21.5288C69.5699 21.5308 69.5739 21.5327 69.5763 21.5339C69.5792 21.5354 69.5805 21.5364 69.5809 21.5367C69.5813 21.537 69.582 21.5376 69.5831 21.539C69.5843 21.5404 69.5867 21.5435 69.59 21.5493L69.59 21.5494C69.5902 21.5497 69.5904 21.55 69.5905 21.5503C69.5901 21.5523 69.5894 21.555 69.5884 21.5585L69.5883 21.5585L69.586 21.5663L63.4726 42.7255C63.468 42.7395 63.4642 42.7441 63.4639 42.7445L63.4639 42.7445C63.4635 42.745 63.4628 42.7458 63.4613 42.7471C63.4603 42.7479 63.4586 42.7493 63.4559 42.751L63.4443 42.7479L62.4375 42.4717C62.4314 42.4696 62.4273 42.4677 62.4249 42.4664C62.4219 42.4649 62.4206 42.4639 62.4202 42.4636C62.4198 42.4633 62.4191 42.4627 62.418 42.4614C62.4169 42.46 62.4145 42.4569 62.4112 42.4512L62.411 42.4509C62.4109 42.4507 62.4108 42.4504 62.4107 42.4502C62.4111 42.4482 62.4118 42.4456 62.4128 42.4422L62.4129 42.4423L62.4152 42.4343L68.5285 21.2754C68.5332 21.2609 68.5372 21.2563 68.5373 21.2561C68.5377 21.2556 68.5383 21.2549 68.5397 21.2537Z" fill="#007181" stroke="#007181"/>
<path d="M60.0242 25.1562L60.0243 25.1563C60.0355 25.1675 60.0401 25.1746 60.0417 25.1773C60.0417 25.1778 60.0417 25.1786 60.0417 25.1797C60.0417 25.1808 60.0417 25.1817 60.0417 25.1823C60.0401 25.1849 60.0355 25.1919 60.0246 25.2028L60.0242 25.2032L53.5815 31.6458L53.2279 31.9993L53.5815 32.3529L60.0241 38.7959L60.0242 38.796C60.0354 38.8071 60.0401 38.8142 60.0416 38.8169C60.0417 38.8175 60.0417 38.8182 60.0417 38.8192C60.0417 38.8203 60.0416 38.8212 60.0416 38.8218C60.0401 38.8244 60.0355 38.8315 60.0242 38.8427C60.0242 38.8427 60.0242 38.8428 60.0242 38.8428L59.2045 39.662L59.2043 39.6622C59.1932 39.6733 59.1862 39.6779 59.1835 39.6795C59.1829 39.6795 59.182 39.6795 59.1808 39.6795C59.1796 39.6795 59.1787 39.6795 59.178 39.6795C59.1753 39.6779 59.1684 39.6733 59.1577 39.6625L59.1573 39.6621L51.518 32.0228L51.5179 32.0227C51.5068 32.0115 51.5021 32.0044 51.5006 32.0017C51.5005 32.0011 51.5005 32.0003 51.5005 31.9993C51.5005 31.9982 51.5005 31.9974 51.5006 31.9968C51.5021 31.9941 51.5067 31.9871 51.5178 31.9761L51.518 31.9758L59.1574 24.3364C59.1687 24.3251 59.1759 24.3204 59.1786 24.3189C59.1791 24.3189 59.1799 24.3188 59.1809 24.3188C59.1819 24.3188 59.1827 24.3189 59.1832 24.3189C59.1859 24.3205 59.1931 24.3251 59.2044 24.3364L59.2044 24.3365L60.0242 25.1562ZM60.0422 25.1783L60.0422 25.1782L60.0422 25.1783ZM60.0422 38.818L60.0422 38.818L60.0422 38.818ZM60.0421 38.8208C60.0422 38.8205 60.0423 38.8206 60.0421 38.8208L60.0421 38.8208ZM51.4999 31.998C51.4999 31.998 51.4999 31.9979 51.5 31.9978L51.5 31.9978C51.4999 31.9979 51.4999 31.998 51.4999 31.998ZM59.182 24.3183C59.182 24.3183 59.1821 24.3183 59.1822 24.3184L59.1822 24.3184C59.1821 24.3183 59.182 24.3183 59.182 24.3183Z" fill="#007181" stroke="#007181"/>
<path d="M80.4817 31.9758L80.4818 31.9759C80.4929 31.987 80.4975 31.9941 80.499 31.9967C80.4991 31.9973 80.4991 31.9982 80.4991 31.9993C80.4991 32.0005 80.4991 32.0014 80.499 32.002C80.4976 32.0046 80.493 32.0117 80.4818 32.0229L80.4817 32.023L72.8422 39.6623L72.8421 39.6624C72.831 39.6735 72.8239 39.6781 72.8212 39.6797C72.8207 39.6797 72.8199 39.6797 72.8189 39.6797C72.8177 39.6797 72.8168 39.6797 72.8162 39.6796C72.8134 39.6781 72.8063 39.6733 72.795 39.6622C72.795 39.6621 72.795 39.6621 72.7949 39.662L71.9757 38.843L71.9757 38.8429C71.9646 38.8319 71.9601 38.825 71.9586 38.8224C71.9585 38.8217 71.9585 38.8207 71.9585 38.8193C71.9585 38.8182 71.9585 38.8174 71.9586 38.8168C71.9601 38.8142 71.9647 38.8071 71.9758 38.796L71.9758 38.796L78.4186 32.353L78.7721 31.9994L78.4186 31.6459L71.9757 25.2032L71.9757 25.2031C71.9647 25.1921 71.9601 25.1852 71.9586 25.1825C71.9585 25.1818 71.9585 25.1809 71.9585 25.1796C71.9585 25.1784 71.9585 25.1775 71.9586 25.1768C71.9601 25.1742 71.9647 25.1671 71.9758 25.1561C71.9758 25.1561 71.9758 25.156 71.9758 25.156L72.7945 24.3371C72.7946 24.337 72.7947 24.3369 72.7948 24.3368C72.8064 24.3253 72.8138 24.3205 72.8166 24.3189C72.8171 24.3189 72.8179 24.3188 72.8189 24.3188C72.8198 24.3188 72.8204 24.3189 72.821 24.3189C72.8237 24.3204 72.8309 24.3251 72.8422 24.3364L72.8422 24.3365L80.4817 31.9758ZM80.4996 31.9977L80.4996 31.9977L80.4996 31.9977ZM80.4995 32.0011C80.4996 32.0009 80.4996 32.0009 80.4995 32.0011L80.4995 32.0011ZM72.8202 39.6802L72.8202 39.6802L72.8202 39.6802ZM71.9581 38.8214L71.9581 38.8214L71.9581 38.8214ZM71.958 38.818C71.9579 38.818 71.958 38.8179 71.9581 38.8178L71.958 38.8178C71.958 38.8179 71.958 38.818 71.958 38.818ZM71.9581 25.1815L71.9581 25.1815L71.9581 25.1815ZM71.958 25.1778C71.9579 25.1781 71.9579 25.1781 71.958 25.1778L71.958 25.1778ZM72.8176 24.3183L72.8176 24.3183L72.8176 24.3183ZM72.8199 24.3183C72.8197 24.3182 72.8197 24.3182 72.8199 24.3183L72.8199 24.3183Z" fill="#007181" stroke="#007181"/>
</g>
<defs>
<clipPath id="clip0">
<rect x="51.0005" y="17.002" width="29.9999" height="30" fill="white"/>
</clipPath>
</defs>
</svg>
