<svg width="132" height="78" viewBox="0 0 132 78" fill="none" xmlns="http://www.w3.org/2000/svg">
<g clip-path="url(#clip0)">
<path d="M37.5679 16.4321C37.5679 15.8798 38.0156 15.4321 38.5679 15.4321H52.9529H92.7856C93.3379 15.4321 93.7856 15.8798 93.7856 16.4321V51.972C93.7856 52.5243 93.3379 52.972 92.7856 52.972H38.5679C38.0156 52.972 37.5679 52.5243 37.5679 51.972V16.4321Z" fill="#DB9600" stroke="#333333" stroke-linecap="round" stroke-linejoin="round"/>
<path d="M59.7819 10.2192H45.595C45.0427 10.2192 44.595 10.667 44.595 11.2192V47.2805C44.595 47.8328 45.0427 48.2805 45.595 48.2805H50.68C51.2092 48.2805 51.6468 47.8682 51.6782 47.34L52.1898 38.7532C52.2213 38.225 52.6589 37.8127 53.1881 37.8127H55.0825C55.5017 37.8127 55.8764 38.0742 56.0211 38.4676L59.3882 47.6256C59.5328 48.019 59.9075 48.2805 60.3267 48.2805H84.6772C85.2295 48.2805 85.6772 47.8328 85.6772 47.2805V11.2192C85.6772 10.667 85.2295 10.2192 84.6772 10.2192H71.5114C71.2373 10.2192 70.9753 10.3317 70.7865 10.5303L65.9368 15.6333C65.5154 16.0768 64.7981 16.0412 64.4225 15.5582L60.5713 10.6054C60.3819 10.3618 60.0906 10.2192 59.7819 10.2192Z" fill="#FFEF85" stroke="#333333" stroke-linecap="round" stroke-linejoin="round"/>
<path d="M51.7136 54.7364L58.0167 68.4155C58.0772 68.5467 58.1085 68.6895 58.1085 68.834V71.2644C58.1085 71.8167 58.5562 72.2644 59.1085 72.2644H73.8657C74.418 72.2644 74.8657 71.8167 74.8657 71.2644V68.7826C74.8657 68.6714 74.8843 68.561 74.9206 68.4559L79.1353 56.2601C79.1716 56.155 79.1902 56.0446 79.1902 55.9335V53.4517C79.1902 52.8994 78.7424 52.4517 78.1902 52.4517H71.6517C71.2985 52.4517 70.9714 52.638 70.7914 52.942L69.1426 55.725C69.0004 55.9649 68.7645 56.1346 68.4918 56.1931L64.8008 56.9842C64.3602 57.0787 63.9108 56.8667 63.7034 56.4666L59.2316 47.8402C59.2037 47.7863 59.1807 47.73 59.163 47.6719L57.1936 41.2219L56.1521 37.538C56.0303 37.1074 55.6373 36.8101 55.1898 36.8101H52.6218C52.0695 36.8101 51.6218 37.2578 51.6218 37.8101V54.3179C51.6218 54.4624 51.6531 54.6052 51.7136 54.7364Z" fill="#FFF8E6" stroke="#333333" stroke-linecap="round" stroke-linejoin="round"/>
<path d="M58.6001 69H74.4001V71.25C74.4001 71.5538 74.1539 71.8 73.8501 71.8H59.1501C58.8463 71.8 58.6001 71.5538 58.6001 71.25V69Z" fill="#38C1C9"/>
<path d="M58.1084 68.6147H74.8656" stroke="#333333"/>
<path d="M64.2632 56.9058C64.2632 56.9058 64.2632 59.633 64.2632 59.633" stroke="#333333" stroke-linecap="round"/>
<path d="M65.6768 15.4321L65.6768 48.2794" stroke="#333333"/>
<line x1="69.4194" y1="22.7524" x2="81.3927" y2="22.7524" stroke="#333333" stroke-linecap="round" stroke-linejoin="round"/>
<line x1="48.3384" y1="25.8823" x2="60.3117" y2="25.8823" stroke="#333333" stroke-linecap="round" stroke-linejoin="round"/>
<line x1="69.4199" y1="27.4468" x2="81.3932" y2="27.4468" stroke="#333333" stroke-linecap="round" stroke-linejoin="round"/>
<line x1="48.3384" y1="30.5728" x2="60.3117" y2="30.5728" stroke="#333333" stroke-linecap="round" stroke-linejoin="round"/>
<line x1="69.4194" y1="36.833" x2="81.3927" y2="36.833" stroke="#333333" stroke-linecap="round" stroke-linejoin="round"/>
<line x1="69.4199" y1="41.5239" x2="81.3932" y2="41.5239" stroke="#333333" stroke-linecap="round" stroke-linejoin="round"/>
</g>
<defs>
<clipPath id="clip0">
<rect x="30" y="9.17676" width="71.3533" height="63.8232" fill="white"/>
</clipPath>
</defs>
</svg>
