<svg width="132" height="78" viewBox="0 0 132 78" fill="none" xmlns="http://www.w3.org/2000/svg">
<path d="M48.6497 34.0884H52.9537V26.7139H48.6497V34.0884Z" fill="#FFDE99" stroke="#333333" stroke-miterlimit="10"/>
<path d="M48.6497 23.0266H52.9537V19.3394H48.6497V23.0266Z" fill="#FFDE99" stroke="#333333" stroke-miterlimit="10"/>
<path d="M47.2188 45.149H54.3924V37.0376H47.2188V45.149Z" fill="#FFDE99" stroke="#333333" stroke-miterlimit="10"/>
<path d="M47.1477 71.9978H54.1176V51.0269H47.1477V71.9978Z" fill="#FFDE99" stroke="#333333" stroke-miterlimit="10"/>
<path d="M50.7387 14.9175C53.9492 16.3134 53.5283 17.9772 53.5283 17.9772C53.5653 18.2982 53.4675 18.62 53.2554 18.8748C53.0433 19.1295 52.7336 19.2972 52.3917 19.3423H49.087C48.7452 19.297 48.4357 19.1293 48.2237 18.8746C48.0118 18.6198 47.914 18.2981 47.9511 17.9772C47.9511 17.9772 47.5295 16.3134 50.7387 14.9175Z" fill="#FF8C00" stroke="#333333" stroke-miterlimit="10"/>
<path d="M50.6279 14.5467V12.7222" stroke="#333333" stroke-miterlimit="10" stroke-linecap="round" stroke-linejoin="round"/>
<path d="M53.9888 26.5998C53.9986 26.824 53.9128 27.0427 53.7503 27.2078C53.5877 27.3729 53.3617 27.4708 53.1219 27.4801H48.1521C47.9127 27.4702 47.6874 27.3719 47.5254 27.2069C47.3635 27.0419 47.278 26.8236 47.2879 26.5998V23.8564C47.2786 23.6327 47.3642 23.4147 47.526 23.2498C47.6879 23.0849 47.9129 22.9865 48.1521 22.9761H53.1219C53.3615 22.9859 53.5872 23.084 53.7497 23.249C53.9121 23.4139 53.9981 23.6323 53.9888 23.8564V26.5998Z" fill="#FF8C00" stroke="#333333" stroke-miterlimit="10" stroke-linecap="round" stroke-linejoin="round"/>
<path d="M55.2271 37.1485C55.2373 37.3722 55.1521 37.5907 54.9902 37.7557C54.8283 37.9208 54.6029 38.019 54.3636 38.0288H46.9008C46.6613 38.0187 46.4358 37.9204 46.2734 37.7556C46.1111 37.5907 46.025 37.3725 46.0339 37.1485V34.1611C46.0244 33.937 46.1103 33.7185 46.2728 33.5535C46.4353 33.3885 46.6611 33.2904 46.9008 33.2808H54.3656C54.4841 33.2856 54.6003 33.3122 54.7077 33.3591C54.8151 33.406 54.9115 33.4722 54.9916 33.554C55.0716 33.6357 55.1336 33.7314 55.174 33.8356C55.2144 33.9398 55.2325 34.0504 55.2271 34.1611V37.1485Z" fill="#FF8C00" stroke="#333333" stroke-miterlimit="10"/>
<path d="M55.7689 50.1441C55.7782 50.368 55.6924 50.5863 55.53 50.7513C55.3677 50.9162 55.1422 51.0144 54.9027 51.0244H46.3592C46.12 51.0139 45.8949 50.9156 45.7329 50.7507C45.5709 50.5858 45.4852 50.3678 45.4943 50.1441V46.204C45.4855 45.9804 45.5714 45.7626 45.7333 45.5978C45.8952 45.433 46.1201 45.3345 46.3592 45.3237H54.9001C55.1395 45.3339 55.3649 45.4321 55.5272 45.597C55.6894 45.7619 55.7754 45.9801 55.7662 46.204L55.7689 50.1441Z" fill="#FF8C00" stroke="#333333" stroke-miterlimit="10" stroke-linecap="round" stroke-linejoin="round"/>
<path d="M54.1206 41.0929H79.0748V38.0269H54.1206V41.0929Z" stroke="#333333" stroke-miterlimit="10"/>
<path d="M54.1206 41.0929H58.196V38.0269H54.1206V41.0929Z" fill="#FFDE99" stroke="#333333" stroke-miterlimit="10"/>
<path d="M58.1909 41.0929H62.2603V38.0269H58.1909V41.0929Z" fill="#FFDE99" stroke="#333333" stroke-miterlimit="10"/>
<path d="M62.2612 41.0929H66.5848V38.0269H62.2612V41.0929Z" fill="#FFDE99" stroke="#333333" stroke-miterlimit="10"/>
<path d="M66.585 41.0929H70.9126V38.0269H66.585V41.0929Z" fill="#FFDE99" stroke="#333333" stroke-miterlimit="10"/>
<path d="M70.9136 41.0929H75.0018V38.0269H70.9136V41.0929Z" fill="#FFDE99" stroke="#333333" stroke-miterlimit="10"/>
<path d="M75.0042 41.0929H79.0749V38.0269H75.0042V41.0929Z" fill="#FFDE99" stroke="#333333" stroke-miterlimit="10"/>
<path d="M64.6053 50.327V47.3018C64.6053 47.3018 64.7372 45.5136 62.2334 44.144C59.731 45.5136 59.8588 47.3018 59.8588 47.3018V50.3264L64.6053 50.327Z" fill="#FFDE99" stroke="#333333" stroke-miterlimit="10"/>
<path d="M68.6412 50.327V47.3018C68.6412 47.3018 68.7542 45.5136 66.6055 44.144C64.4575 45.5136 64.5671 47.3018 64.5671 47.3018V50.3264L68.6412 50.327Z" fill="#FFDE99" stroke="#333333" stroke-miterlimit="10"/>
<path d="M60.1278 50.327V47.3018C60.1278 47.3018 60.2462 45.5136 57.9758 44.144C55.7074 45.5136 55.8238 47.3018 55.8238 47.3018V50.3264L60.1278 50.327Z" fill="#FFDE99" stroke="#333333" stroke-miterlimit="10"/>
<path d="M73.0796 50.1048V47.0797C73.0796 47.0797 73.2 45.2914 70.9142 43.9219C68.6283 45.2914 68.7466 47.0797 68.7466 47.0797V50.1042L73.0796 50.1048Z" fill="#FFDE99" stroke="#333333" stroke-miterlimit="10"/>
<path d="M77.4063 50.1048V47.0797C77.4063 47.0797 77.5266 45.2914 75.2415 43.9219C72.9529 45.2914 73.0726 47.0797 73.0726 47.0797V50.1042L77.4063 50.1048Z" fill="#FFDE99" stroke="#333333" stroke-miterlimit="10"/>
<path d="M55.7723 46.9362V46.2099C55.7814 45.986 55.6955 45.7678 55.5332 45.6029C55.3709 45.4379 55.1455 45.3397 54.9061 45.3296H54.1206V41.0972H79.0748V45.3271H78.2967C78.0576 45.3377 77.8326 45.4361 77.6707 45.6009C77.5087 45.7658 77.4229 45.9837 77.4319 46.2074V47.082H77.4083C77.4083 47.082 77.528 45.2944 75.2435 43.9242C72.957 45.2944 73.076 47.082 73.076 47.082H73.0821C73.0821 47.082 73.2024 45.2944 70.9179 43.9242C68.6314 45.2944 68.7504 47.082 68.7504 47.082H68.7558C68.7558 47.082 68.8768 45.2944 66.5923 43.9242C64.3058 45.2944 64.4268 47.082 64.4268 47.082H64.4309C64.4309 47.082 64.5506 45.2944 62.2654 43.9242C59.9788 45.2944 60.0972 47.082 60.0972 47.082H60.1033C60.1033 47.082 60.2243 45.2944 57.9411 43.9267C55.6546 45.2969 55.7736 47.0845 55.7736 47.0845L55.7723 46.9362Z" fill="#FF8C00" stroke="#333333" stroke-miterlimit="10" stroke-linecap="round" stroke-linejoin="round"/>
<path d="M80.5537 33.2768H84.578V27.48H80.5537V33.2768Z" fill="#FFDE99" stroke="#333333" stroke-miterlimit="10"/>
<path d="M80.5537 22.9761H84.578V19.1128H80.5537V22.9761Z" fill="#FFDE99" stroke="#333333" stroke-miterlimit="10"/>
<path d="M79.082 45.3248H86.0513V38.0308H79.082V45.3248Z" fill="#FFDE99" stroke="#333333" stroke-miterlimit="10"/>
<path d="M79.082 71.9978H86.0513V51.0269H79.082V71.9978Z" fill="#FFDE99" stroke="#333333" stroke-miterlimit="10"/>
<path d="M82.5623 14.5459C85.7722 15.9865 85.3526 17.7031 85.3526 17.7031C85.3526 18.4803 84.8448 19.1122 84.2154 19.1122H80.9093C80.2845 19.1122 79.7741 18.4834 79.7741 17.7031C79.7741 17.7031 79.3524 15.9865 82.5623 14.5459Z" fill="#FF8C00" stroke="#333333" stroke-miterlimit="10"/>
<path d="M82.5647 14.5467V12.7222" stroke="#333333" stroke-miterlimit="10" stroke-linecap="round" stroke-linejoin="round"/>
<path d="M85.9128 26.5998C85.9225 26.8241 85.8365 27.0428 85.6739 27.2078C85.5112 27.3729 85.2851 27.4708 85.0453 27.4801H80.0795C79.9607 27.4756 79.844 27.4492 79.7361 27.4025C79.6282 27.3558 79.5313 27.2897 79.4507 27.208C79.3701 27.1262 79.3076 27.0305 79.2666 26.9261C79.2257 26.8218 79.2071 26.7109 79.2119 26.5998V23.8564C79.2026 23.6322 79.2887 23.4137 79.4513 23.2487C79.6139 23.0838 79.8398 22.9857 80.0795 22.9761H85.0446C85.2843 22.9859 85.51 23.084 85.6726 23.2489C85.8352 23.4139 85.9213 23.6323 85.9122 23.8564L85.9128 26.5998Z" fill="#FF8C00" stroke="#333333" stroke-miterlimit="10" stroke-linecap="round" stroke-linejoin="round"/>
<path d="M87.1609 37.1485C87.1707 37.3722 87.0854 37.5904 86.9236 37.7554C86.7617 37.9204 86.5366 38.0187 86.2974 38.0288H78.8352C78.596 38.0187 78.3707 37.9204 78.2088 37.7554C78.0469 37.5904 77.9614 37.3722 77.971 37.1485V34.1611C77.9608 33.9372 78.0461 33.7187 78.2082 33.5536C78.3702 33.3885 78.5958 33.2904 78.8352 33.2808H86.3001C86.4186 33.2855 86.535 33.3121 86.6425 33.3589C86.7501 33.4057 86.8467 33.4719 86.9269 33.5537C87.0071 33.6354 87.0692 33.7311 87.1099 33.8354C87.1505 33.9396 87.1687 34.0503 87.1636 34.1611L87.1609 37.1485Z" fill="#FF8C00"/>
<path d="M87.1609 37.1485C87.1707 37.3722 87.0854 37.5904 86.9236 37.7554C86.7617 37.9204 86.5366 38.0187 86.2974 38.0288H78.8352C78.596 38.0187 78.3707 37.9204 78.2088 37.7554C78.0469 37.5904 77.9614 37.3722 77.971 37.1485V34.1611C77.9608 33.9372 78.0461 33.7187 78.2082 33.5536C78.3702 33.3885 78.5958 33.2904 78.8352 33.2808H86.3001C86.4186 33.2855 86.535 33.3121 86.6425 33.3589C86.7501 33.4057 86.8467 33.4719 86.9269 33.5537C87.0071 33.6354 87.0692 33.7311 87.1099 33.8354C87.1505 33.9396 87.1687 34.0503 87.1636 34.1611L87.1609 37.1485Z" stroke="#333333" stroke-miterlimit="10" stroke-linecap="round" stroke-linejoin="round"/>
<path d="M87.7008 50.1441C87.71 50.3678 87.6242 50.5858 87.4622 50.7507C87.3002 50.9156 87.0752 51.0139 86.836 51.0244H78.291C78.0519 51.0139 77.8268 50.9156 77.6648 50.7507C77.5028 50.5858 77.4171 50.3678 77.4262 50.1441V46.204C77.4174 45.9804 77.5033 45.7626 77.6652 45.5978C77.8271 45.433 78.052 45.3345 78.291 45.3237H86.836C87.0751 45.3343 87.3001 45.4328 87.462 45.5976C87.624 45.7624 87.7098 45.9804 87.7008 46.204V50.1441Z" fill="#FF8C00"/>
<path d="M87.7008 50.1441C87.71 50.3678 87.6242 50.5858 87.4622 50.7507C87.3002 50.9156 87.0752 51.0139 86.836 51.0244H78.291C78.0519 51.0139 77.8268 50.9156 77.6648 50.7507C77.5028 50.5858 77.4171 50.3678 77.4262 50.1441V46.204C77.4174 45.9804 77.5033 45.7626 77.6652 45.5978C77.8271 45.433 78.052 45.3345 78.291 45.3237H86.836C87.0751 45.3343 87.3001 45.4328 87.462 45.5976C87.624 45.7624 87.7098 45.9804 87.7008 46.204V50.1441Z" stroke="#333333" stroke-miterlimit="10" stroke-linecap="round" stroke-linejoin="round"/>
<path d="M77.424 50.1452V50.105H55.7416V50.1452C55.7507 50.3692 55.6647 50.5876 55.5023 50.7525C55.3399 50.9174 55.1143 51.0156 54.8747 51.0255H54.0879V71.9983H79.0421V51.0274H78.2916C78.0515 51.0176 77.8255 50.9193 77.6629 50.7539C77.5002 50.5886 77.4144 50.3697 77.424 50.1452V50.1452Z" fill="#FF8C00" stroke="#333333" stroke-miterlimit="10"/>
<path d="M38.8044 71.9888L92.801 71.9888" stroke="#333333" stroke-linecap="round" stroke-linejoin="round"/>
<path d="M60.0706 54.4512C60.0905 54.8837 59.9261 55.306 59.6134 55.6253C59.3007 55.9447 58.8654 56.135 58.4028 56.1546C57.9399 56.135 57.5041 55.9448 57.1908 55.6255C56.8775 55.3063 56.7121 54.8841 56.7309 54.4512C56.7123 54.0184 56.8778 53.5964 57.1911 53.2774C57.5044 52.9584 57.9401 52.7685 58.4028 52.749C58.8651 52.7686 59.3003 52.9588 59.6129 53.2778C59.9256 53.5969 60.0901 54.0188 60.0706 54.4512Z" fill="#FFDE99" stroke="#333333" stroke-miterlimit="10" stroke-linecap="round" stroke-linejoin="round"/>
<path d="M76.4115 54.4512C76.4314 54.8838 76.2669 55.3062 75.954 55.6255C75.6412 55.9449 75.2057 56.1352 74.743 56.1546C74.2801 56.1355 73.8442 55.9453 73.5311 55.626C73.218 55.3066 73.0533 54.884 73.0731 54.4512C73.0536 54.0185 73.2185 53.5963 73.5316 53.2772C73.8446 52.9581 74.2803 52.7681 74.743 52.749C75.2054 52.7684 75.6408 52.9585 75.9535 53.2776C76.2663 53.5967 76.431 54.0187 76.4115 54.4512V54.4512Z" fill="#FFDE99" stroke="#333333" stroke-miterlimit="10" stroke-linecap="round" stroke-linejoin="round"/>
<path d="M59.582 71.9957V62.3808C59.582 62.3808 59.0527 57.2788 66.599 53.8745H66.603C74.1519 57.2788 73.62 62.3808 73.62 62.3808V71.9957H59.582Z" fill="#FFDE99" stroke="#333333" stroke-miterlimit="10"/>
</svg>
