<svg width="132" height="78" viewBox="0 0 132 78" fill="none" xmlns="http://www.w3.org/2000/svg">
<path d="M36.7014 71.937L99.9996 71.937" stroke="#333333" stroke-linecap="round" stroke-linejoin="round"/>
<path d="M63.3392 40.8846L66.364 46.2779C66.8094 48.0477 65.1672 48.0758 65.1672 48.0758L57.4272 40.3509L59.6834 36.3901L63.3392 40.8846Z" fill="#B5F3F2"/>
<g opacity="0.2">
<path opacity="0.2" d="M62.2701 42.1081C62.2701 42.1081 61.8372 40.1265 59.1231 37.375L57.4272 40.3521L62.7733 45.6883C62.4574 43.5194 62.2701 42.1081 62.2701 42.1081Z" fill="#333333"/>
</g>
<path d="M62.4245 55.0596L48.7156 61.9715V67.7204H62.4245V55.0596Z" fill="#B5F3F2"/>
<g opacity="0.2">
<path opacity="0.2" d="M62.4214 55.0596H60.5938V67.7201H62.4214V55.0596Z" fill="#333333"/>
</g>
<g opacity="0.4">
<path opacity="0.4" d="M50.5434 61.9727H48.7156V67.7219H50.5434V61.9727Z" fill="white"/>
</g>
<path d="M50.9232 34.1425L48.6383 36.8391L45.0583 22.9062L46.0454 22.0073L50.9232 34.1425Z" fill="#B5F3F2"/>
<path d="M59.6823 28.4531H52.3708V40.3978H59.6823V28.4531Z" fill="#B5F3F2"/>
<path d="M47.8008 67.8516H63.3378L64.2516 69.6494H46.887L47.8008 67.8516Z" fill="#B5F3F2"/>
<g opacity="0.2">
<path opacity="0.2" d="M47.8008 67.8521L46.887 69.6499H48.7148L49.6287 67.8521H47.8008Z" fill="white"/>
</g>
<g opacity="0.3">
<path opacity="0.3" d="M63.3399 67.8521L64.2537 69.6499H62.4258L61.512 67.8521H63.3399Z" fill="#333333"/>
</g>
<path d="M45.515 14.8174C46.2736 14.8174 46.886 16.3184 46.886 17.0646C46.886 17.8108 46.2737 18.4129 45.515 18.4129C44.7564 18.4129 44.144 17.8108 44.144 17.0646C44.144 16.3184 44.7565 14.8174 45.515 14.8174Z" fill="#FFAE00"/>
<g opacity="0.5">
<path opacity="0.5" d="M45.06 17.0675C45.06 16.4798 45.442 15.4348 45.9739 15.0125C45.8302 14.8983 45.6786 14.8203 45.517 14.8203C44.7583 14.8203 44.146 16.3213 44.146 17.0675C44.146 17.8137 44.7583 18.4158 45.517 18.4158C45.6786 18.4158 45.8302 18.3834 45.9739 18.3338C45.442 18.1485 45.06 17.6553 45.06 17.0675Z" fill="white"/>
</g>
<g opacity="0.2">
<path opacity="0.2" d="M45.9723 17.0675C45.9723 16.4798 45.5903 15.4348 45.0583 15.0125C45.2021 14.8983 45.3538 14.8203 45.5154 14.8203C46.274 14.8203 46.8864 16.3213 46.8864 17.0675C46.8864 17.8137 46.2741 18.4158 45.5154 18.4158C45.3538 18.4158 45.2021 18.3834 45.0583 18.3338C45.5903 18.1485 45.9723 17.6553 45.9723 17.0675Z" fill="#333333"/>
</g>
<path d="M43.2317 19.3125H47.8014L46.8875 21.1102H44.1457L43.2317 19.3125Z" fill="#38C1C9"/>
<g opacity="0.4">
<path opacity="0.4" d="M43.2317 19.3125L44.1457 21.1102H45.0595L44.1457 19.3125H43.2317Z" fill="white"/>
</g>
<g opacity="0.2">
<path opacity="0.2" d="M47.8047 19.3125L46.8909 21.1102H45.9768L46.8909 19.3125H47.8047Z" fill="#333333"/>
</g>
<path d="M59.5448 27.4038C59.4716 27.0802 59.3529 26.7743 59.1978 26.5049C58.5676 25.3812 57.3797 24.707 56.0267 24.707C54.6736 24.707 53.4856 25.3812 52.8555 26.5049C52.7003 26.7743 52.5815 27.0802 52.4985 27.4038C52.4163 27.7364 52.3708 28.0867 52.3708 28.4554C52.3708 30.7206 54.638 32.7971 56.0267 32.7971C57.4154 32.7971 59.6823 30.7206 59.6823 28.4554C59.6823 28.0867 59.6368 27.7272 59.5448 27.4038Z" fill="#38C1C9"/>
<path d="M49.144 40.7846L46.887 37.2879L50.5426 31.8945C60.2577 37.0631 61.3546 42.1057 61.3546 42.1057C61.3546 42.1057 62.2134 48.596 63.3923 55.2656C63.3923 55.2656 61.1439 56.3445 58.7681 57.5488C56.1085 58.8875 53.2845 60.371 53.2845 60.6502V60.659C53.4218 61.1259 54.1984 61.5579 54.1984 61.5579L47.8008 64.2545L48.7148 48.9734L49.144 40.7846Z" fill="#38C1C9"/>
<path d="M62.4159 49.3749L61.8074 45.3333L65.1659 40.8828L67.9077 41.7817L62.4159 49.3749Z" fill="#38C1C9"/>
<path d="M65.1701 69.6484H45.9768V71.4461H65.1701V69.6484Z" fill="#B5F3F2"/>
<g opacity="0.2">
<path opacity="0.2" d="M62.5768 44.3164L61.8093 45.3339L62.4179 49.3754L63.1704 48.3343C62.9294 46.7576 62.7276 45.3777 62.5768 44.3164Z" fill="#333333"/>
</g>
<g opacity="0.3">
<path opacity="0.3" d="M65.1646 69.6479H63.3367V71.4457H65.1646V69.6479Z" fill="#333333"/>
</g>
<g opacity="0.2">
<path opacity="0.2" d="M47.8047 69.6519H45.9768V71.4496H47.8047V69.6519Z" fill="white"/>
</g>
<path d="M56.0296 33.2423C54.4427 33.2423 51.9167 31.0495 51.9167 28.4512C51.9167 28.061 51.9641 27.6713 52.0569 27.2934C52.1543 26.9163 52.2899 26.5762 52.4613 26.279C53.171 25.0123 54.5061 24.2534 56.0296 24.2534C57.5532 24.2534 58.8884 25.0123 59.6005 26.2834C59.7772 26.5907 59.9111 26.9348 59.9941 27.3021C60.0905 27.6388 60.1423 28.0334 60.1423 28.4512C60.1423 31.0495 57.6166 33.2423 56.0296 33.2423ZM56.0296 25.1522C54.8443 25.1522 53.8081 25.7373 53.2583 26.7179C53.1254 26.9496 53.02 27.2142 52.9442 27.5097C52.8692 27.8138 52.8308 28.132 52.8308 28.4511C52.8308 30.5416 54.9763 32.3433 56.0296 32.3433C57.0828 32.3433 59.2284 30.5416 59.2284 28.4511C59.2284 28.1197 59.1865 27.7979 59.1079 27.5206C59.0391 27.2208 58.9356 26.9526 58.8035 26.7222C58.2509 25.7373 57.2148 25.1522 56.0296 25.1522Z" fill="#333333"/>
<path d="M45.5198 18.8616C44.5122 18.8616 43.6919 18.0553 43.6919 17.0639C43.6919 16.1378 44.4041 14.3672 45.5198 14.3672C46.6354 14.3672 47.3476 16.1378 47.3476 17.0639C47.3476 18.0553 46.5275 18.8616 45.5198 18.8616ZM45.5198 15.2661C45.178 15.2661 44.6059 16.3919 44.6059 17.0639C44.6059 17.5594 45.0155 17.9628 45.5198 17.9628C46.024 17.9628 46.4338 17.5595 46.4338 17.0639C46.4338 16.3919 45.8616 15.2661 45.5198 15.2661Z" fill="#333333"/>
<path d="M47.8024 19.7583H43.2327C42.98 19.7583 42.7756 19.5572 42.7756 19.3089C42.7756 19.0604 42.98 18.8594 43.2327 18.8594H47.8024C48.055 18.8594 48.2594 19.0604 48.2594 19.3089C48.2594 19.5572 48.055 19.7583 47.8024 19.7583Z" fill="#333333"/>
<path d="M44.1466 21.5558C43.9798 21.5558 43.8181 21.4649 43.7378 21.3074L42.8238 19.5095C42.7114 19.2875 42.8023 19.0175 43.0282 18.9064C43.2549 18.7966 43.528 18.8853 43.6413 19.1075L44.5553 20.9053C44.6677 21.1273 44.5768 21.3973 44.3509 21.5084C44.2848 21.5405 44.2153 21.5558 44.1466 21.5558Z" fill="#333333"/>
<path d="M46.8908 21.5586H44.1489C43.8964 21.5586 43.6919 21.3575 43.6919 21.1091C43.6919 20.8607 43.8963 20.6597 44.1489 20.6597H46.8908C47.1433 20.6597 47.3476 20.8607 47.3476 21.1091C47.3476 21.3575 47.1433 21.5586 46.8908 21.5586Z" fill="#333333"/>
<path d="M46.8859 21.5593C46.8172 21.5593 46.7476 21.5439 46.6815 21.5119C46.4556 21.4009 46.3647 21.1308 46.4771 20.9088L47.391 19.111C47.5043 18.8888 47.7792 18.801 48.0042 18.9099C48.2301 19.0209 48.321 19.291 48.2086 19.5131L47.2945 21.3109C47.2143 21.4685 47.0529 21.5593 46.8859 21.5593Z" fill="#333333"/>
<path d="M47.8013 34.1439C47.5959 34.1439 47.4093 34.0078 47.3576 33.8033L44.6158 23.0166C44.5756 22.8577 44.6266 22.6896 44.7488 22.5781L45.7358 21.6792C45.8474 21.5778 46.0009 21.5379 46.1482 21.5709C46.2954 21.6038 46.4169 21.7065 46.4722 21.8447L50.0548 30.8336C50.1467 31.065 50.0307 31.3257 49.7959 31.4161C49.5629 31.5065 49.2951 31.3933 49.2031 31.162L45.865 22.7862L45.5678 23.0571L48.2446 33.5856C48.3053 33.8261 48.1571 34.0702 47.9116 34.1303C47.8753 34.1395 47.8378 34.1439 47.8013 34.1439Z" fill="#333333"/>
<path d="M53.2868 61.1033C53.0343 61.1033 52.8299 60.9022 52.8299 60.6539C52.8299 60.2834 52.8299 60.0385 58.5625 57.1522C60.4145 56.2137 62.1907 55.3501 62.8859 55.0139C61.7489 48.5267 60.9125 42.2314 60.9035 42.1674C60.899 42.1568 59.6932 37.2763 50.3272 32.2936C50.106 32.1755 50.023 31.9026 50.1434 31.6844C50.2631 31.4654 50.5414 31.3864 50.7628 31.5027C60.5503 36.7104 61.757 41.8014 61.8043 42.0155C61.8186 42.1164 62.6816 48.6093 63.8446 55.1921C63.8792 55.3897 63.7777 55.5854 63.5955 55.6731C63.5937 55.674 61.3499 56.7511 58.9803 57.9519C54.7961 60.0587 53.8901 60.6688 53.7009 60.8434C53.6286 60.9962 53.4706 61.1033 53.2868 61.1033Z" fill="#333333"/>
<path d="M47.7997 64.7047C47.7068 64.7047 47.6149 64.6766 47.5372 64.6231C47.4077 64.5335 47.3337 64.3843 47.3435 64.2289L48.2576 48.9477L48.6789 40.9052L46.5003 37.5295C46.4029 37.3794 46.4057 37.1872 46.5057 37.0392L50.1614 31.6458C50.3016 31.4387 50.5862 31.3842 50.7951 31.5212C51.0048 31.659 51.062 31.9378 50.9218 32.1444L47.4311 37.2947L49.5285 40.5443C49.5794 40.6229 49.6044 40.7155 49.599 40.8085L49.1696 48.9968L48.2995 63.5556L53.2913 61.4515C53.0968 61.2654 52.9182 61.037 52.8442 60.7842C52.7746 60.5455 52.9138 60.2961 53.1566 60.2277C53.3956 60.16 53.6518 60.2961 53.7223 60.5349C53.7776 60.7227 54.1713 61.0283 54.4221 61.1669C54.5729 61.2512 54.6631 61.4128 54.6533 61.5831C54.6443 61.7533 54.5372 61.9042 54.3774 61.971L47.9798 64.6676C47.9219 64.6923 47.8603 64.7047 47.7997 64.7047Z" fill="#333333"/>
<path d="M56.0271 25.1541C55.7745 25.1541 55.5701 24.9531 55.5701 24.7046V21.1091C55.5701 20.8607 55.7745 20.6597 56.0271 20.6597C56.2795 20.6597 56.4839 20.8607 56.4839 21.1091V24.7047C56.4839 24.9531 56.2795 25.1541 56.0271 25.1541Z" fill="#333333"/>
<path d="M57.8534 25.6128C57.7233 25.6128 57.594 25.558 57.5029 25.4518C57.3413 25.2613 57.3672 24.9778 57.56 24.8189L60.3018 22.5629C60.4947 22.4023 60.7829 22.4286 60.9461 22.6191C61.1077 22.8096 61.0818 23.0932 60.889 23.252L58.1472 25.508C58.0614 25.5785 57.957 25.6128 57.8534 25.6128Z" fill="#333333"/>
<path d="M52.5 27.8494C52.3376 27.8494 52.1795 27.7638 52.0975 27.6129C51.9779 27.3943 52.0617 27.1217 52.2841 27.0042C52.3573 26.9651 54.1075 26.0518 56.0284 26.0518C57.9497 26.0518 59.6831 26.9664 59.7563 27.0051C59.9777 27.1235 60.0598 27.3961 59.9393 27.6143C59.8188 27.8315 59.5413 27.9135 59.3198 27.7951C59.3037 27.7868 57.7127 26.9506 56.0284 26.9506C54.3353 26.9506 52.7322 27.7875 52.7162 27.7959C52.6473 27.8322 52.5733 27.8494 52.5 27.8494Z" fill="#333333"/>
<path d="M61.514 26.9507H59.2017C58.949 26.9507 58.7446 26.7496 58.7446 26.5012C58.7446 26.2528 58.949 26.0518 59.2017 26.0518H61.514C61.7667 26.0518 61.9711 26.2528 61.9711 26.5012C61.9711 26.7496 61.7667 26.9507 61.514 26.9507Z" fill="#333333"/>
<path d="M54.1992 25.612C54.0957 25.612 53.9912 25.5777 53.9055 25.5071L51.1638 23.2511C50.9709 23.0922 50.9451 22.8087 51.1067 22.6182C51.27 22.4286 51.5574 22.4028 51.7511 22.562L54.493 24.818C54.6858 24.9769 54.7115 25.2606 54.5501 25.4509C54.4589 25.557 54.3296 25.612 54.1992 25.612Z" fill="#333333"/>
<path d="M52.8556 26.9507H50.543C50.2905 26.9507 50.0862 26.7496 50.0862 26.5012C50.0862 26.2528 50.2905 26.0518 50.543 26.0518H52.8556C53.1082 26.0518 53.3125 26.2528 53.3125 26.5012C53.3125 26.7496 53.1082 26.9507 52.8556 26.9507Z" fill="#333333"/>
<path d="M59.6841 35.0424C59.4315 35.0424 59.2273 34.8413 59.2273 34.5928V28.4534C59.2273 28.2051 59.4315 28.0039 59.6841 28.0039C59.9367 28.0039 60.1411 28.205 60.1411 28.4534V34.5928C60.1411 34.8413 59.9367 35.0424 59.6841 35.0424Z" fill="#333333"/>
<path d="M63.1114 44.0295C63.0159 44.0295 62.9195 44.0001 62.8374 43.9395C62.6357 43.7907 62.5946 43.509 62.7455 43.3105L64.8019 40.6138C64.9546 40.415 65.242 40.3765 65.4418 40.5239C65.6435 40.6727 65.6846 40.9545 65.5337 41.1529L63.4775 43.8495C63.3873 43.9676 63.2498 44.0295 63.1114 44.0295Z" fill="#333333"/>
<path d="M67.9102 42.2319C67.862 42.2319 67.8138 42.2245 67.7656 42.2086L65.0238 41.3098C64.7845 41.2317 64.6551 40.9771 64.7346 40.7413C64.8149 40.5056 65.0748 40.3801 65.3131 40.4573L68.0549 41.3562C68.2941 41.4343 68.4236 41.689 68.3441 41.9246C68.2798 42.1129 68.1013 42.2319 67.9102 42.2319Z" fill="#333333"/>
<path d="M63.3357 48.5237C63.2437 48.5237 63.1509 48.4965 63.0697 48.4394C62.8643 48.2955 62.817 48.0146 62.9634 47.8127L67.5331 41.5209C67.6795 41.3186 67.9651 41.2721 68.1713 41.4164C68.3767 41.5603 68.424 41.8413 68.2776 42.0431L63.7079 48.3358C63.6187 48.4587 63.4776 48.5237 63.3357 48.5237Z" fill="#333333"/>
<path d="M65.1682 48.5261C64.9156 48.5261 64.7112 48.3251 64.7112 48.0767C64.7112 47.8282 64.9156 47.6272 65.1682 47.6272C65.17 47.6272 65.6983 47.615 65.875 47.2707C66.1017 46.8257 65.9554 46.479 65.9491 46.465C65.8509 46.2393 65.9517 45.9742 66.1785 45.8732C66.4079 45.7714 66.6713 45.8644 66.7774 46.0857C66.814 46.1603 67.1174 46.838 66.6918 47.6754C66.3454 48.347 65.5706 48.5261 65.1682 48.5261Z" fill="#333333"/>
<path d="M63.34 41.3356C63.2061 41.3356 63.0731 41.2776 62.9829 41.167L59.3271 36.6724C59.1702 36.4785 59.2014 36.1957 59.3985 36.0404C59.5976 35.8856 59.8841 35.9179 60.0412 36.1107L63.6971 40.6051C63.8542 40.7992 63.823 41.0818 63.6256 41.2372C63.5409 41.3035 63.44 41.3356 63.34 41.3356Z" fill="#333333"/>
<path d="M49.1442 41.2352C48.9629 41.2352 48.7916 41.1285 48.7203 40.9534C48.6274 40.7251 48.7372 40.4662 48.9665 40.3713C48.9986 40.3568 49.9091 39.9236 51.0613 37.963C51.188 37.7474 51.4692 37.675 51.6852 37.7983C51.9037 37.9225 51.9787 38.1977 51.852 38.4124C50.523 40.675 49.4343 41.1552 49.3146 41.2026C49.2584 41.2246 49.2013 41.2352 49.1442 41.2352Z" fill="#333333"/>
<path d="M63.3392 68.3006H47.8023C47.5496 68.3006 47.3452 68.0997 47.3452 67.8513C47.3452 67.6029 47.5496 67.4019 47.8023 67.4019H63.3392C63.5919 67.4019 63.7963 67.6029 63.7963 67.8513C63.7963 68.0997 63.5919 68.3006 63.3392 68.3006Z" fill="#333333"/>
<path d="M46.8859 70.0977C46.8172 70.0977 46.7476 70.0819 46.6815 70.0503C46.4556 69.9397 46.3647 69.6693 46.4771 69.4473L47.391 67.6494C47.5043 67.4274 47.7792 67.3396 48.0042 67.4485C48.2301 67.5591 48.321 67.8295 48.2086 68.0515L47.2945 69.8492C47.2143 70.0063 47.0529 70.0977 46.8859 70.0977Z" fill="#333333"/>
<path d="M65.1663 70.0986H45.9735C45.721 70.0986 45.5166 69.8976 45.5166 69.6492C45.5166 69.4008 45.721 69.1997 45.9735 69.1997H65.1664C65.4188 69.1997 65.6233 69.4008 65.6233 69.6492C65.6231 69.8976 65.4187 70.0986 65.1663 70.0986Z" fill="#333333"/>
<path d="M64.2515 70.0981C64.0845 70.0981 63.923 70.0067 63.8429 69.8496L62.9288 68.0519C62.8164 67.8297 62.9073 67.5595 63.1332 67.4489C63.3599 67.3391 63.6331 67.4278 63.7464 67.6498L64.6603 69.4476C64.7727 69.6698 64.6818 69.9401 64.4559 70.0507C64.3898 70.0822 64.3202 70.0981 64.2515 70.0981Z" fill="#333333"/>
<path d="M50.5435 53.021C50.3854 53.021 50.2312 52.9402 50.1463 52.7944C50.0214 52.5786 50.0973 52.3047 50.3167 52.1818C56.3991 48.7625 56.484 41.8538 56.484 41.7844C56.4849 41.5364 56.6894 41.3359 56.9411 41.3359C56.9411 41.3359 56.9411 41.3359 56.942 41.3359C57.1937 41.3359 57.3981 41.5369 57.3981 41.7849C57.3981 42.089 57.3232 49.2797 50.7702 52.9613C50.6987 53.0017 50.6212 53.021 50.5435 53.021Z" fill="#333333"/>
<path d="M62.4251 67.4013C62.1727 67.4013 61.9683 67.2002 61.9683 66.9518V56.6487C61.9683 56.4003 62.1727 56.1992 62.4251 56.1992C62.6777 56.1992 62.8821 56.4003 62.8821 56.6487V66.9518C62.8821 67.2002 62.6777 67.4013 62.4251 67.4013Z" fill="#333333"/>
<path d="M59.6841 67.4024C59.4315 67.4024 59.2273 67.2013 59.2273 66.9529V57.9885C59.2273 57.7409 59.4315 57.5391 59.6841 57.5391C59.9367 57.5391 60.1411 57.7409 60.1411 57.9885V66.9529C60.1411 67.2013 59.9367 67.4024 59.6841 67.4024Z" fill="#333333"/>
<path d="M56.9414 67.4028C56.6888 67.4028 56.4844 67.2017 56.4844 66.9532V59.382C56.4844 59.1337 56.6888 58.9326 56.9414 58.9326C57.194 58.9326 57.3985 59.1337 57.3985 59.382V66.9532C57.3985 67.2017 57.194 67.4028 56.9414 67.4028Z" fill="#333333"/>
<path d="M54.1985 67.4012C53.9459 67.4012 53.7415 67.2001 53.7415 66.9517V62.4572C53.7415 62.2087 53.9459 62.0078 54.1985 62.0078C54.4511 62.0078 54.6555 62.2087 54.6555 62.4572V66.9517C54.6555 67.2001 54.4511 67.4012 54.1985 67.4012Z" fill="#333333"/>
<path d="M51.4575 67.4027C51.2049 67.4027 51.0005 67.2016 51.0005 66.9531V63.6648C51.0005 63.4164 51.2049 63.2153 51.4575 63.2153C51.71 63.2153 51.9143 63.4164 51.9143 63.6648V66.9531C51.9143 67.2016 51.71 67.4027 51.4575 67.4027Z" fill="#333333"/>
<path d="M48.7164 67.4041C48.4639 67.4041 48.2595 67.2031 48.2595 66.9546V64.8127C48.2595 64.5652 48.4639 64.3633 48.7164 64.3633C48.969 64.3633 49.1734 64.5652 49.1734 64.8127V66.9546C49.1734 67.2031 48.969 67.4041 48.7164 67.4041Z" fill="#333333"/>
<path d="M53.2841 61.103C53.0316 61.103 52.8271 60.9063 52.8271 60.658V57.9611C52.8271 57.7127 53.0316 57.5117 53.2841 57.5117C53.5366 57.5117 53.741 57.7127 53.741 57.9611V60.6491C53.741 60.8975 53.5366 61.103 53.2841 61.103Z" fill="#333333"/>
<path d="M57.8535 35.0401C57.6011 35.0401 57.3967 34.8391 57.3967 34.5906V33.6917C57.3967 33.4433 57.6011 33.2422 57.8535 33.2422C58.1062 33.2422 58.3106 33.4432 58.3106 33.6917V34.5906C58.3106 34.8391 58.1062 35.0401 57.8535 35.0401Z" fill="#333333"/>
<path d="M58.7681 57.9998C58.5154 57.9998 58.311 57.7988 58.311 57.5504V52.5706C58.311 52.3221 58.5154 52.1211 58.7681 52.1211C59.0207 52.1211 59.2251 52.3221 59.2251 52.5706V57.5504C59.2251 57.7988 59.0207 57.9998 58.7681 57.9998Z" fill="#333333"/>
<path d="M45.9735 71.8964C45.721 71.8964 45.5166 71.6954 45.5166 71.4469V69.6492C45.5166 69.4007 45.721 69.1997 45.9735 69.1997C46.2262 69.1997 46.4306 69.4007 46.4306 69.6492V71.4469C46.4306 71.6954 46.2262 71.8964 45.9735 71.8964Z" fill="#333333"/>
<path d="M65.1682 71.8964C64.9156 71.8964 64.7112 71.6954 64.7112 71.4469V69.6492C64.7112 69.4007 64.9156 69.1997 65.1682 69.1997C65.4206 69.1997 65.625 69.4007 65.625 69.6492V71.4469C65.625 71.6954 65.4206 71.8964 65.1682 71.8964Z" fill="#333333"/>
<path d="M81.2355 31.0814L80.6905 22.9966H78.8122L78.2672 31.0814C77.8163 35.4208 77.0088 41.3311 75.5715 47.6622H83.9311C82.4938 41.3313 81.6867 35.4208 81.2355 31.0814Z" fill="#E7F6FF"/>
<path d="M83.9251 49.7393H80.2693H80.0203C80.6575 52.1915 82.5393 58.3492 83.374 60.8014H87.2331C85.8839 57.1511 84.8055 53.3897 83.9251 49.7393Z" fill="#E7F6FF"/>
<path d="M78.3951 49.7393H74.7398C73.8587 53.3897 72.7804 57.1511 71.4309 60.8014H75.2708C76.105 58.3492 78.0163 52.1915 78.644 49.7393H78.3951Z" fill="#E7F6FF"/>
<g opacity="0.5">
<path opacity="0.5" d="M74.5116 50.6676C73.6742 54.0256 72.6658 57.4608 71.4297 60.8044H72.3669C73.6032 57.4608 74.6117 54.0238 75.4498 50.6641L74.5116 50.6676Z" fill="white"/>
</g>
<path d="M75.5842 60.3403C75.5347 60.3403 75.4849 60.3331 75.4355 60.3169C75.1902 60.236 75.0575 59.9749 75.14 59.7335C76.014 57.1643 77.3339 52.9215 77.9417 50.5484C78.0044 50.3009 78.2584 50.1505 78.5105 50.2144C78.7612 50.2756 78.9135 50.5269 78.8504 50.7736C78.2377 53.1673 76.9082 57.4399 76.0285 60.0254C75.9631 60.2179 75.7801 60.3403 75.5842 60.3403Z" fill="#333333"/>
<path d="M83.0811 60.3399C82.8852 60.3399 82.7022 60.2175 82.6362 60.0249C81.784 57.5205 80.4466 53.2055 79.8153 50.7749C79.7512 50.5282 79.9022 50.2771 80.1529 50.214C80.4037 50.15 80.6591 50.2995 80.7232 50.5463C81.3503 52.9581 82.6784 57.2431 83.5258 59.7332C83.6082 59.9746 83.4745 60.2356 83.2292 60.3166C83.1798 60.3326 83.1306 60.3399 83.0811 60.3399Z" fill="#333333"/>
<path d="M92.29 71.505H87.6624C87.6624 71.505 85.2374 66.0787 79.3327 66.0787C73.4281 66.0787 71.003 71.505 71.003 71.505H66.3755C68.0969 68.7017 69.5686 65.644 70.8363 62.4609H72.854H74.7051H76.5561H78.4072H80.258H82.1091H83.9602H85.8113H87.8285C89.0969 65.644 90.5691 68.7017 92.29 71.505Z" fill="#E7F6FF"/>
<g opacity="0.5">
<path opacity="0.5" d="M70.3569 63.5669C69.1591 66.48 67.788 69.2789 66.2104 71.8653H67.1477C68.7253 69.2798 70.096 66.4819 71.2931 63.5687L70.3569 63.5669Z" fill="white"/>
</g>
<path d="M74.7346 49.3084C74.8844 48.7577 75.0255 48.2067 75.1567 47.6641H83.5076C83.6386 48.2067 83.7797 48.7577 83.9301 49.3084H81.2088H79.3321H77.4555H74.7346Z" fill="#00A5EC"/>
<g opacity="0.2">
<path opacity="0.2" d="M75.1623 47.8984C75.0314 48.5068 74.8905 49.1246 74.7407 49.7421H75.6779C75.8275 49.1246 75.9685 48.5068 76.0995 47.8984H75.1623Z" fill="white"/>
</g>
<path d="M71.2733 60.8159H87.3942C87.6239 61.3667 87.863 61.9175 88.1111 62.4603H86.0271H84.1147H82.2023H80.29H78.3778H76.4654H74.5531H72.6407H70.5562C70.8049 61.9174 71.044 61.3667 71.2733 60.8159Z" fill="#00A5EC"/>
<g opacity="0.2">
<path opacity="0.2" d="M71.43 60.8013C71.2053 61.4188 70.9709 62.0364 70.7271 62.6449H71.6644C71.9083 62.0364 72.1427 61.4188 72.3672 60.8013H71.43Z" fill="white"/>
</g>
<g opacity="0.2">
<path opacity="0.2" d="M80.4064 23.9301L80.8888 31.1658C81.3393 35.5447 82.1446 41.5087 83.5789 47.8974H82.6417C81.2074 41.5087 80.4018 35.5447 79.9517 31.1658L79.4692 23.9292L80.4064 23.9301Z" fill="#333333"/>
</g>
<g opacity="0.2">
<path opacity="0.2" d="M84.2303 50.6794C85.0668 54.0346 86.0737 57.4654 87.3076 60.8044H86.3702C85.1345 57.4608 84.126 54.0238 83.2874 50.6641L84.2303 50.6794Z" fill="#333333"/>
</g>
<g opacity="0.2">
<path opacity="0.2" d="M88.3855 63.576C89.5827 66.4874 90.9521 69.2835 92.5283 71.8671H91.5909C90.0128 69.2799 88.6417 66.4819 87.4436 63.5669L88.3855 63.576Z" fill="#333333"/>
</g>
<g opacity="0.2">
<path opacity="0.2" d="M83.5749 47.895C83.7058 48.5034 83.8467 49.1211 83.9969 49.7386H83.0598C82.9097 49.1211 82.7687 48.5034 82.6377 47.895H83.5749Z" fill="#333333"/>
</g>
<g opacity="0.2">
<path opacity="0.2" d="M87.3078 60.8013C87.533 61.4188 87.7673 62.0364 88.0106 62.6449H87.0734C86.8299 62.0364 86.5956 61.4188 86.3704 60.8013H87.3078Z" fill="#333333"/>
</g>
<path d="M80.3742 18.8833H79.3294H78.2846C77.71 18.8833 77.2395 19.346 77.2395 19.911V20.9388V21.9665C77.2395 22.5314 77.71 22.9942 78.2846 22.9942H80.3742C80.9487 22.9942 81.4193 22.5314 81.4193 21.9665V20.9388V19.911C81.4193 19.346 80.9487 18.8833 80.3742 18.8833Z" fill="#00A5EC"/>
<g opacity="0.2">
<path opacity="0.2" d="M78.3947 22.0859V21.164V20.2422C78.3947 19.7354 78.8165 19.3203 79.3319 19.3203H78.3947C77.8793 19.3203 77.4573 19.7353 77.4573 20.2422V21.164V22.0859C77.4573 22.5927 77.8793 23.0078 78.3947 23.0078H79.3319C78.8165 23.0078 78.3947 22.5928 78.3947 22.0859Z" fill="white"/>
</g>
<g opacity="0.2">
<path opacity="0.2" d="M80.268 20.2422V21.164V22.0859C80.268 22.5927 79.8462 23.0078 79.3308 23.0078H80.268C80.7833 23.0078 81.2054 22.5927 81.2054 22.0859V21.164V20.2422C81.2054 19.7354 80.7833 19.3203 80.268 19.3203H79.3308C79.8462 19.3204 80.268 19.7354 80.268 20.2422Z" fill="#333333"/>
</g>
<g opacity="0.2">
<path opacity="0.2" d="M88.382 63.5664C88.2557 63.2586 88.134 62.9551 88.0103 62.6445H85.8925H84.0179H82.1433H80.2687H78.3943H76.5197H74.6451H72.7705H70.7272L70.3625 63.5664H88.382Z" fill="#333333"/>
</g>
<g opacity="0.2">
<path opacity="0.2" d="M84.2316 50.6601C84.1548 50.3531 84.0742 50.0433 84.0009 49.7383H80.27H80.021C80.0897 50.003 80.1757 50.318 80.27 50.6601H84.2316Z" fill="#333333"/>
</g>
<g opacity="0.2">
<path opacity="0.2" d="M78.3948 50.6601C78.4899 50.318 78.575 50.003 78.6426 49.7383H78.3939H74.7385C74.6648 50.0433 74.581 50.3531 74.5046 50.6601H78.3948Z" fill="#333333"/>
</g>
<path d="M66.2084 72.3275C66.1265 72.3275 66.0432 72.3058 65.9677 72.2618C65.7458 72.1312 65.674 71.8476 65.8071 71.6289C67.4373 68.957 68.9452 65.8791 70.2898 62.4806C70.5324 61.8757 70.7653 61.2618 70.9881 60.6496C72.221 57.3133 73.2985 53.7124 74.2823 49.6361C74.4311 49.0221 74.5711 48.4082 74.7011 47.8033C75.8863 42.5247 76.7885 36.9135 77.3834 31.1208C77.8264 26.7651 77.9244 23.9437 77.9253 23.9153C77.934 23.661 78.1666 23.454 78.4091 23.4701C78.6675 23.4782 78.8703 23.6912 78.8616 23.9459C78.8606 23.9738 78.7622 26.8235 78.3162 31.213C77.7171 37.0417 76.8092 42.6888 75.6173 47.9976C75.4865 48.6061 75.3446 49.2274 75.1941 49.8486C74.2018 53.9591 73.1145 57.5943 71.8697 60.962C71.644 61.5824 71.4083 62.2035 71.1626 62.8175C69.7997 66.2619 68.2679 69.3866 66.6108 72.1044C66.5229 72.2482 66.3678 72.3275 66.2084 72.3275Z" fill="#333333"/>
<path d="M92.4502 72.3296C92.2909 72.3296 92.1361 72.2503 92.0483 72.1062C90.3907 69.3885 88.8593 66.2637 87.4964 62.8175C87.251 62.2053 87.0149 61.5842 86.7878 60.9612C85.5449 57.5962 84.4575 53.9611 83.4653 49.8505C83.3142 49.2293 83.1723 48.6081 83.0407 47.996C81.8497 42.6909 80.9419 37.0436 80.3423 31.2154C79.8966 26.8254 79.7982 23.9757 79.7974 23.9478C79.7887 23.6931 79.9914 23.4801 80.2498 23.4721C80.5043 23.4387 80.725 23.6624 80.7341 23.9173C80.7341 23.9456 80.833 26.767 81.276 31.1232C81.8708 36.9155 82.7725 42.5266 83.9569 47.8016C84.0878 48.4102 84.228 49.0241 84.3771 49.6381C85.3601 53.7144 86.4383 57.3153 87.6704 60.649C87.8935 61.2638 88.1261 61.8778 88.3687 62.481C89.7133 65.8812 91.2217 68.9592 92.8519 71.6311C92.9846 71.8498 92.9131 72.1334 92.6917 72.264C92.6156 72.3079 92.5327 72.3296 92.4502 72.3296Z" fill="#333333"/>
<path d="M79.3332 47.436C79.0741 47.436 78.8645 47.2298 78.8645 46.975V31.3038C78.8645 31.049 79.0741 30.8428 79.3332 30.8428C79.5923 30.8428 79.8019 31.049 79.8019 31.3038V46.975C79.8019 47.2298 79.5923 47.436 79.3332 47.436Z" fill="#333333"/>
<path d="M70.8939 72.3271C70.8317 72.3271 70.7682 72.3145 70.7068 72.2884C70.4699 72.1866 70.3614 71.9147 70.4652 71.6815C70.4908 71.6229 73.1154 65.874 79.3299 65.874C85.5448 65.874 88.169 71.6229 88.1945 71.6815C88.298 71.9146 88.19 72.1857 87.9537 72.2874C87.716 72.3901 87.4404 72.2839 87.3361 72.0515C87.24 71.8364 84.9222 66.7959 79.3299 66.7959C73.7219 66.7959 71.3469 71.9975 71.3236 72.0506C71.2469 72.2244 71.0747 72.3271 70.8939 72.3271Z" fill="#333333"/>
<path d="M72.7709 72.3281H64.3354C64.0764 72.3281 63.8667 72.1219 63.8667 71.8671C63.8667 71.6124 64.0763 71.4062 64.3354 71.4062H72.7709C73.0299 71.4062 73.2396 71.6124 73.2396 71.8671C73.2396 72.1219 73.0299 72.3281 72.7709 72.3281Z" fill="#333333"/>
<path d="M94.3276 72.3281H85.8923C85.6332 72.3281 85.4236 72.1219 85.4236 71.8671C85.4236 71.6124 85.6332 71.4062 85.8923 71.4062H94.3276C94.5867 71.4062 94.7963 71.6124 94.7963 71.8671C94.7963 72.1219 94.5867 72.3281 94.3276 72.3281Z" fill="#333333"/>
<path d="M84.9517 48.3555H73.7045C73.4455 48.3555 73.2358 48.1493 73.2358 47.8946C73.2358 47.6398 73.4455 47.4336 73.7045 47.4336H84.9517C85.2108 47.4336 85.4204 47.6398 85.4204 47.8946C85.4204 48.1493 85.2108 48.3555 84.9517 48.3555Z" fill="#333333"/>
<path d="M87.7654 61.2617H70.8943C70.6353 61.2617 70.4258 61.0555 70.4258 60.8008C70.4258 60.546 70.6353 60.3398 70.8943 60.3398H87.7654C88.0243 60.3398 88.2339 60.546 88.2339 60.8008C88.2339 61.0555 88.0243 61.2617 87.7654 61.2617Z" fill="#333333"/>
<path d="M83.9226 50.203H74.737C74.4779 50.203 74.2683 49.9969 74.2683 49.7421C74.2683 49.4873 74.4779 49.2812 74.737 49.2812H83.9226C84.1808 49.2812 84.3914 49.4873 84.3914 49.7421C84.3914 49.9969 84.1808 50.203 83.9226 50.203Z" fill="#333333"/>
<path d="M80.2652 23.4681H78.3909C77.6155 23.4681 76.9849 22.8478 76.9849 22.0854V20.2416C76.9849 19.4791 77.6155 18.8589 78.3909 18.8589H80.2652C81.0406 18.8589 81.6711 19.4791 81.6711 20.2416V22.0854C81.6711 22.848 81.0406 23.4681 80.2652 23.4681ZM78.3909 19.7808C78.1323 19.7808 77.9222 19.9873 77.9222 20.2416V22.0854C77.9222 22.3397 78.1323 22.5462 78.3909 22.5462H80.2652C80.5234 22.5462 80.7339 22.3397 80.7339 22.0854V20.2416C80.7339 19.9873 80.5234 19.7808 80.2652 19.7808H78.3909Z" fill="#333333"/>
<path d="M87.9337 63.1094H70.7254C70.4665 63.1094 70.2568 62.9032 70.2568 62.6484C70.2568 62.3936 70.4665 62.1875 70.7254 62.1875H87.9336C88.1936 62.1875 88.4023 62.3936 88.4023 62.6484C88.4023 62.9032 88.1937 63.1094 87.9337 63.1094Z" fill="#333333"/>
<path d="M79.3332 19.7811C79.0741 19.7811 78.8645 19.5749 78.8645 19.3201V13.7891C78.8645 13.5343 79.0741 13.3281 79.3332 13.3281C79.5923 13.3281 79.8019 13.5343 79.8019 13.7891V19.3202C79.8019 19.5749 79.5923 19.7811 79.3332 19.7811Z" fill="#333333"/>
<path d="M72.7679 63.1088C72.5088 63.1088 72.2993 62.9026 72.2993 62.6478V62.1869C72.2993 61.9321 72.5088 61.7261 72.7679 61.7261C73.027 61.7261 73.2366 61.9321 73.2366 62.1869V62.6478C73.2366 62.9026 73.027 63.1088 72.7679 63.1088Z" fill="#333333"/>
<path d="M74.6455 63.1088C74.3864 63.1088 74.1768 62.9026 74.1768 62.6478V62.1869C74.1768 61.9321 74.3864 61.7261 74.6455 61.7261C74.9045 61.7261 75.1142 61.9321 75.1142 62.1869V62.6478C75.1142 62.9026 74.9045 63.1088 74.6455 63.1088Z" fill="#333333"/>
<path d="M76.5168 63.1088C76.2577 63.1088 76.0481 62.9026 76.0481 62.6478V62.1869C76.0481 61.9321 76.2577 61.7261 76.5168 61.7261C76.7759 61.7261 76.9854 61.9321 76.9854 62.1869V62.6478C76.9854 62.9026 76.7759 63.1088 76.5168 63.1088Z" fill="#333333"/>
<path d="M78.3942 63.1088C78.1352 63.1088 77.9255 62.9026 77.9255 62.6478V62.1869C77.9255 61.9321 78.1352 61.7261 78.3942 61.7261C78.6531 61.7261 78.8627 61.9321 78.8627 62.1869V62.6478C78.8627 62.9026 78.6531 63.1088 78.3942 63.1088Z" fill="#333333"/>
<path d="M80.2656 63.1088C80.0065 63.1088 79.7971 62.9026 79.7971 62.6478V62.1869C79.7971 61.9321 80.0065 61.7261 80.2656 61.7261C80.5247 61.7261 80.7343 61.9321 80.7343 62.1869V62.6478C80.7343 62.9026 80.5247 63.1088 80.2656 63.1088Z" fill="#333333"/>
<path d="M82.1433 63.1088C81.8842 63.1088 81.6746 62.9026 81.6746 62.6478V62.1869C81.6746 61.9321 81.8842 61.7261 82.1433 61.7261C82.4023 61.7261 82.612 61.9321 82.612 62.1869V62.6478C82.612 62.9026 82.4023 63.1088 82.1433 63.1088Z" fill="#333333"/>
<path d="M84.0188 63.1088C83.7597 63.1088 83.55 62.9026 83.55 62.6478V62.1869C83.55 61.9321 83.7597 61.7261 84.0188 61.7261C84.2778 61.7261 84.4875 61.9321 84.4875 62.1869V62.6478C84.4875 62.9026 84.2778 63.1088 84.0188 63.1088Z" fill="#333333"/>
<path d="M85.8923 63.1088C85.6332 63.1088 85.4236 62.9026 85.4236 62.6478V62.1869C85.4236 61.9321 85.6332 61.7261 85.8923 61.7261C86.1514 61.7261 86.3608 61.9321 86.3608 62.1869V62.6478C86.3608 62.9026 86.1514 63.1088 85.8923 63.1088Z" fill="#333333"/>
<path d="M77.4535 50.2026C77.1944 50.2026 76.9849 49.9965 76.9849 49.7417V49.2808C76.9849 49.026 77.1944 48.8198 77.4535 48.8198C77.7125 48.8198 77.9222 49.026 77.9222 49.2808V49.7417C77.9222 49.9965 77.7125 50.2026 77.4535 50.2026Z" fill="#333333"/>
<path d="M79.3332 50.2026C79.0741 50.2026 78.8645 49.9965 78.8645 49.7417V49.2808C78.8645 49.026 79.0741 48.8198 79.3332 48.8198C79.5923 48.8198 79.8019 49.026 79.8019 49.2808V49.7417C79.8019 49.9965 79.5923 50.2026 79.3332 50.2026Z" fill="#333333"/>
<path d="M81.2045 50.2026C80.9455 50.2026 80.7358 49.9965 80.7358 49.7417V49.2808C80.7358 49.026 80.9455 48.8198 81.2045 48.8198C81.4636 48.8198 81.673 49.026 81.673 49.2808V49.7417C81.673 49.9965 81.4636 50.2026 81.2045 50.2026Z" fill="#333333"/>
<path d="M82.1404 21.6255H76.5168C76.2577 21.6255 76.0481 21.4193 76.0481 21.1645C76.0481 20.9098 76.2577 20.7036 76.5168 20.7036H82.1404C82.3994 20.7036 82.6091 20.9098 82.6091 21.1645C82.6091 21.4193 82.3994 21.6255 82.1404 21.6255Z" fill="#333333"/>
<g opacity="0.2">
<path opacity="0.2" d="M80.3299 23.9287L80.2687 23.0068H78.3943L78.333 23.9287H80.3299Z" fill="#333333"/>
</g>
</svg>
