<svg width="132" height="78" viewBox="0 0 132 78" fill="none" xmlns="http://www.w3.org/2000/svg">
<path d="M52.7429 56.233C56.9051 55.3301 61.1717 54.8878 65.4502 54.9157C69.725 54.8861 73.988 55.328 78.146 56.2319V49.5893V49.5667L77.9733 47.3809C77.9733 47.3809 77.9581 47.0703 77.9898 46.6008C74.9618 45.0724 70.4686 44.0957 65.4413 44.0957C60.4274 44.0957 55.938 45.0689 52.9131 46.595C52.9468 47.0663 52.9334 47.3826 52.9334 47.3826L52.7613 49.5685L52.7429 49.7385V56.233Z" fill="#FFDE99" stroke="#333333" stroke-miterlimit="10" stroke-linecap="round" stroke-linejoin="round"/>
<path d="M69.5993 32.5317H59.4596L59.1059 29.1343C59.1059 29.1343 58.6892 22.6565 64.532 19.2314C70.3696 22.6565 69.8863 29.1841 69.8863 29.1841L69.5993 32.5317Z" fill="#FF8C00" stroke="#333333" stroke-miterlimit="10"/>
<path d="M64.4236 19.1217V16.4824" stroke="#333333" stroke-miterlimit="10" stroke-linecap="round" stroke-linejoin="round"/>
<path d="M69.889 36.2696L69.8776 36.1198L69.7093 34.1895C69.6924 33.6326 69.7437 33.0758 69.8623 32.5293H59.7468C59.8648 33.0758 59.9149 33.6328 59.896 34.1895L59.7322 36.1192V42.3489C61.4009 42.1247 63.0854 42.0124 64.7722 42.0129C66.4864 42.011 68.1984 42.127 69.8934 42.3599V36.2696H69.889Z" fill="#FFDE99" stroke="#333333" stroke-miterlimit="10" stroke-linecap="round" stroke-linejoin="round"/>
<path d="M65.1321 41.7481C65.6713 41.7481 66.1991 41.7632 66.7198 41.7817V36.2002C66.7061 35.8288 66.5313 35.4774 66.2338 35.2229C65.9362 34.9685 65.5401 34.8317 65.1321 34.8424C64.724 34.8312 64.3276 34.9679 64.03 35.2224C63.7323 35.477 63.5577 35.8286 63.5444 36.2002V41.7817C64.0703 41.7632 64.5949 41.7481 65.1321 41.7481Z" fill="#FF8C00" stroke="#333333" stroke-miterlimit="10"/>
<path d="M55.9226 27.9047V26.1699" stroke="#333333" stroke-miterlimit="10" stroke-linecap="round" stroke-linejoin="round"/>
<path d="M59.5402 32.3401H59.5579C59.3496 31.4053 58.918 30.5236 58.2936 29.7577C57.6692 28.9918 56.8674 28.3604 55.945 27.9082C54.7632 28.4989 53.7816 29.3729 53.1063 30.4353C52.431 31.4978 52.0879 32.7082 52.1142 33.9355L52.3638 36.004H59.5268L59.5408 35.8571L59.725 33.9662C59.7462 33.4197 59.69 32.8729 59.5579 32.3395L59.5402 32.3401Z" fill="#FF8C00" stroke="#333333" stroke-miterlimit="10"/>
<path d="M59.7288 42.3566V36.002H52.7429V44.0977C54.9725 43.2277 57.3233 42.6417 59.7288 42.3566" fill="#FFDE99"/>
<path d="M59.7288 42.3566V36.002H52.7429V44.0977C54.9725 43.2277 57.3233 42.6417 59.7288 42.3566V42.3566Z" stroke="#333333" stroke-miterlimit="10"/>
<path d="M57.1899 42.502V38.5698C57.1841 38.3445 57.0806 38.1305 56.9022 37.9744C56.7237 37.8183 56.4847 37.7327 56.2373 37.7365C55.9893 37.7323 55.7496 37.818 55.571 37.9747C55.3923 38.1314 55.2893 38.3463 55.2847 38.5721V42.9409C55.8893 42.7794 56.5243 42.6331 57.1899 42.502Z" fill="#FF8C00" stroke="#333333" stroke-miterlimit="10"/>
<path d="M73.7029 28.073V26.1699" stroke="#333333" stroke-miterlimit="10" stroke-linecap="round" stroke-linejoin="round"/>
<path d="M70.0897 32.3401H70.0713C70.2804 31.4055 70.7124 30.5242 71.3367 29.7584C71.961 28.9926 72.7624 28.361 73.6842 27.9082C74.8649 28.4998 75.8456 29.374 76.5202 30.4363C77.1948 31.4986 77.5377 32.7086 77.5118 33.9355L77.2622 36.004H70.1024L70.0897 35.8571L69.8992 33.9662C69.8805 33.4197 69.9384 32.8733 70.0713 32.3401H70.0897Z" fill="#FF8C00" stroke="#333333" stroke-miterlimit="10"/>
<path d="M69.8958 42.3566V36.002H77.5167V44.0977C75.0684 43.2236 72.5073 42.6385 69.8958 42.3566V42.3566Z" fill="#FFDE99" stroke="#333333" stroke-miterlimit="10"/>
<path d="M72.4321 42.502V38.5698C72.4345 38.4581 72.4611 38.3479 72.5103 38.2456C72.5594 38.1433 72.6303 38.0508 72.7188 37.9734C72.8072 37.896 72.9116 37.8352 73.0259 37.7946C73.1401 37.7539 73.2621 37.7342 73.3847 37.7365C73.6327 37.7326 73.8721 37.8184 74.0507 37.975C74.2293 38.1317 74.3324 38.3464 74.3374 38.5721V42.9409C73.7309 42.7796 73.0977 42.6322 72.4321 42.502Z" fill="#FF8C00" stroke="#333333" stroke-miterlimit="10"/>
<path d="M81.26 40.9501V38.8105" stroke="#333333" stroke-miterlimit="10" stroke-linecap="round" stroke-linejoin="round"/>
<path d="M77.689 45.6358H77.6718C77.8467 44.7254 78.2326 43.8594 78.8038 43.0954C79.3749 42.3314 80.1183 41.687 80.9844 41.2051C84.7644 43.2897 84.4951 47.2312 84.4951 47.2312L84.2671 49.3009H77.7004L77.689 49.154L77.5201 47.2642C77.4982 46.7178 77.5492 46.171 77.6718 45.6358H77.689Z" fill="#FF8C00" stroke="#333333" stroke-miterlimit="10"/>
<path d="M83.8861 57.1767C84.0887 57.2512 84.3072 57.3212 84.4983 57.3975V49.3018H77.5125V55.2909C79.7059 55.707 81.843 56.3393 83.8861 57.1767V57.1767Z" fill="#FFDE99" stroke="#333333" stroke-miterlimit="10"/>
<path d="M81.9619 56.2411V51.885C81.9589 51.6576 81.8569 51.4405 81.6783 51.2814C81.4997 51.1224 81.2591 51.0344 81.0093 51.0367C80.8855 51.0353 80.7627 51.0562 80.6478 51.0981C80.5329 51.14 80.4282 51.2021 80.3397 51.2809C80.2512 51.3597 80.1807 51.4536 80.1321 51.5573C80.0835 51.661 80.0579 51.7723 80.0566 51.885V55.6802C80.726 55.856 81.3579 56.0428 81.9619 56.2411Z" fill="#FF8C00" stroke="#333333" stroke-miterlimit="10"/>
<path d="M65.1269 41.7837C60.1416 41.7837 55.6916 42.6939 52.7429 44.1234V45.8489C52.7512 45.8946 52.7671 45.9438 52.7747 45.9871C52.8424 46.3158 52.8872 46.648 52.9087 46.9818C55.8586 45.5962 60.2368 44.7138 65.1269 44.7138C70.0253 44.7138 74.4061 45.6003 77.356 46.9881C77.3781 46.652 77.4235 46.3175 77.4919 45.9866C77.497 45.9634 77.5059 45.9386 77.5116 45.9137V44.1211C74.5585 42.6939 70.106 41.7837 65.1269 41.7837Z" fill="#FF8C00" stroke="#333333" stroke-miterlimit="10" stroke-linecap="round" stroke-linejoin="round"/>
<path d="M49.1978 40.9501V38.8105" stroke="#333333" stroke-miterlimit="10" stroke-linecap="round" stroke-linejoin="round"/>
<path d="M52.5706 45.6358H52.5859C52.4107 44.7256 52.0248 43.8597 51.4538 43.0958C50.8827 42.3318 50.1397 41.6873 49.2739 41.2051C45.4939 43.2897 45.7632 47.2312 45.7632 47.2312L45.9899 49.3009H52.5541L52.5694 49.154L52.7377 47.2642C52.7577 46.7178 52.7063 46.1712 52.5846 45.6358H52.5706Z" fill="#FF8C00" stroke="#333333" stroke-miterlimit="10"/>
<path d="M52.7449 55.2909V49.3018H45.759V57.3975C45.9534 57.3212 46.1744 57.2495 46.3782 57.1749C48.4195 56.3394 50.5542 55.7078 52.7449 55.2909V55.2909Z" fill="#FFDE99" stroke="#333333" stroke-miterlimit="10"/>
<path d="M50.2085 55.6802V51.885C50.2071 51.7723 50.1814 51.661 50.1328 51.5574C50.0842 51.4538 50.0137 51.3599 49.9252 51.2811C49.8367 51.2023 49.7321 51.1402 49.6172 51.0982C49.5024 51.0563 49.3796 51.0354 49.2558 51.0367C49.006 51.0344 48.7654 51.1224 48.5868 51.2814C48.4082 51.4405 48.3062 51.6576 48.3032 51.885V56.2411C48.904 56.0426 49.5391 55.8556 50.2085 55.6802Z" fill="#FF8C00" stroke="#333333" stroke-miterlimit="10"/>
<path d="M85.1339 60.244C80.9608 58.1819 73.738 56.8184 65.5227 56.8184C57.2063 56.8184 49.9055 58.2184 45.759 60.3204V72.4317H85.1339V60.244Z" fill="#FFDE99" stroke="#333333" stroke-miterlimit="10" stroke-linecap="round" stroke-linejoin="round"/>
<path d="M73.7013 55.0833V50.6341C73.6844 50.2657 73.5078 49.9184 73.2102 49.6684C72.9126 49.4185 72.5182 49.2862 72.1136 49.3006C71.9131 49.2928 71.7128 49.3212 71.5244 49.3841C71.336 49.447 71.1631 49.5431 71.0155 49.667C70.868 49.7909 70.7488 49.9401 70.6648 50.1061C70.5808 50.272 70.5336 50.4515 70.5259 50.6341V54.8132C71.6123 54.8876 72.6707 54.9776 73.7013 55.0833Z" fill="#FF8C00" stroke="#333333" stroke-miterlimit="10"/>
<path d="M65.1404 55.0703C65.6719 55.0703 66.1972 55.0772 66.7198 55.0859V49.5559C66.7143 49.1773 66.544 48.8163 66.2463 48.552C65.9486 48.2878 65.5478 48.142 65.1321 48.1466C64.9262 48.1441 64.7218 48.1786 64.5305 48.248C64.3392 48.3175 64.1649 48.4206 64.0174 48.5515C63.87 48.6824 63.7523 48.8385 63.6711 49.0108C63.59 49.1832 63.5469 49.3684 63.5444 49.5559V55.0859C64.0747 55.0772 64.605 55.0703 65.1404 55.0703Z" fill="#FF8C00" stroke="#333333" stroke-miterlimit="10"/>
<path d="M60.3636 54.8092V50.6306C60.3555 50.4483 60.3079 50.2692 60.2236 50.1037C60.1394 49.9381 60.0201 49.7893 59.8727 49.6658C59.7252 49.5423 59.5524 49.4464 59.3642 49.3838C59.176 49.3211 58.9761 49.2928 58.7759 49.3006C58.372 49.2863 57.9783 49.4182 57.6808 49.6674C57.3833 49.9166 57.2062 50.2629 57.1882 50.6306V55.0833C58.2179 54.9723 59.2764 54.8809 60.3636 54.8092Z" fill="#FF8C00" stroke="#333333" stroke-miterlimit="10"/>
<path d="M43.8555 61.4462C47.4119 58.9018 55.5936 57.1213 65.1306 57.1213C74.6676 57.1213 82.8493 58.9018 86.4057 61.4462V58.2513C82.8493 55.7086 74.6669 53.9287 65.1306 53.9287C55.5943 53.9287 47.4119 55.7086 43.8555 58.2513V61.4462Z" fill="#FFDE99" stroke="#333333" stroke-miterlimit="10" stroke-linecap="round" stroke-linejoin="round"/>
<path d="M65.1293 64.334C64.8385 64.3329 64.5503 64.384 64.2812 64.4844C64.0121 64.5848 63.7674 64.7324 63.561 64.9189C63.3546 65.1054 63.1905 65.3271 63.0782 65.5713C62.9659 65.8156 62.9076 66.0776 62.9065 66.3423V72.4298H67.352V66.3423C67.3495 65.8077 67.114 65.2958 66.6972 64.9192C66.2804 64.5427 65.7164 64.3322 65.1293 64.334V64.334Z" fill="#FF8C00" stroke="#333333" stroke-miterlimit="10"/>
<path d="M57.5074 64.334C56.9203 64.3322 56.3563 64.5427 55.9395 64.9192C55.5227 65.2958 55.2872 65.8077 55.2847 66.3423V72.4298H59.7302V66.3423C59.7291 66.0776 59.6708 65.8156 59.5585 65.5713C59.4462 65.3271 59.2821 65.1054 59.0757 64.9189C58.8693 64.7324 58.6246 64.5848 58.3555 64.4844C58.0864 64.384 57.7982 64.3329 57.5074 64.334V64.334Z" fill="#FF8C00" stroke="#333333" stroke-miterlimit="10"/>
<path d="M50.526 64.334C49.9388 64.332 49.3747 64.5425 48.9579 64.9191C48.5411 65.2957 48.3056 65.8076 48.3032 66.3423V72.4298H52.7488V66.3423C52.7477 66.0776 52.6893 65.8156 52.577 65.5713C52.4647 65.3271 52.3007 65.1054 52.0943 64.9189C51.8879 64.7324 51.6431 64.5848 51.374 64.4844C51.1049 64.384 50.8168 64.3329 50.526 64.334V64.334Z" fill="#FF8C00" stroke="#333333" stroke-miterlimit="10"/>
<path d="M72.1185 64.334C71.5314 64.3322 70.9674 64.5427 70.5506 64.9192C70.1338 65.2958 69.8983 65.8077 69.8958 66.3423V72.4298H74.3413V66.3423C74.3402 66.0776 74.2819 65.8156 74.1696 65.5713C74.0573 65.3271 73.8932 65.1054 73.6868 64.9189C73.4804 64.7324 73.2357 64.5848 72.9666 64.4844C72.6975 64.384 72.4093 64.3329 72.1185 64.334V64.334Z" fill="#FF8C00" stroke="#333333" stroke-miterlimit="10"/>
<path d="M79.7352 64.334C79.4444 64.3329 79.1563 64.384 78.8872 64.4844C78.6181 64.5848 78.3734 64.7324 78.1669 64.9189C77.9605 65.1054 77.7965 65.3271 77.6842 65.5713C77.5719 65.8156 77.5135 66.0776 77.5125 66.3423V72.4298H81.958V66.3423C81.9551 65.8078 81.7195 65.2961 81.3028 64.9196C80.886 64.5431 80.3223 64.3325 79.7352 64.334V64.334Z" fill="#FF8C00" stroke="#333333" stroke-miterlimit="10"/>
<path d="M37.6033 72.4512L94.6528 72.4512" stroke="#333333" stroke-linecap="round" stroke-linejoin="round"/>
</svg>
