<svg width="132" height="78" viewBox="0 0 132 78" fill="none" xmlns="http://www.w3.org/2000/svg">
<rect x="30" y="32.5737" width="57.5783" height="37.4268" rx="2" fill="#8A8A8A" stroke="#333333" stroke-linecap="round" stroke-linejoin="round"/>
<path d="M41.1016 55.5122C40.073 55.5122 39.238 56.3176 39.238 57.3097C39.238 58.3019 40.073 59.1072 41.1016 59.1072C42.1302 59.1072 42.9652 58.3019 42.9652 57.3097C42.9652 56.3176 42.1302 55.5122 41.1016 55.5122Z" fill="#BBBBBB" stroke="#333333"/>
<path d="M101.484 34.5425L92.7222 41.2689V58.7578L101.484 65.9327V34.5425Z" fill="#BBBBBB" stroke="#333333" stroke-linecap="round" stroke-linejoin="round"/>
<path d="M87.6917 36.3423H89.2824C91.4916 36.3423 93.2824 38.1331 93.2824 40.3423V61.1025C93.2824 63.3116 91.4916 65.1025 89.2824 65.1025H87.6917V36.3423Z" fill="#BBBBBB" stroke="#333333" stroke-linecap="round" stroke-linejoin="round"/>
<ellipse cx="49.2536" cy="22.6331" rx="10.0136" ry="9.65852" fill="#38C1C9" stroke="#333333" stroke-linecap="round" stroke-linejoin="round"/>
<path d="M53.2171 22.8597C53.2171 24.8452 51.5484 26.4547 49.4899 26.4547C47.4314 26.4547 45.7627 24.8452 45.7627 22.8597C45.7627 20.8742 47.4314 19.2646 49.4899 19.2646C51.5484 19.2646 53.2171 20.8742 53.2171 22.8597Z" fill="#B5F3F2" stroke="#333333" stroke-linecap="round" stroke-linejoin="round"/>
<ellipse cx="69.7509" cy="22.6331" rx="10.0136" ry="9.65852" fill="#38C1C9" stroke="#333333" stroke-linecap="round" stroke-linejoin="round"/>
<ellipse cx="69.9867" cy="22.8597" rx="3.7272" ry="3.59503" fill="#B5F3F2" stroke="#333333" stroke-linecap="round" stroke-linejoin="round"/>
<rect x="39.238" y="41.7349" width="22.3632" height="7.19005" rx="3" fill="#FFDE99" stroke="#333333"/>
<path d="M46.9106 57.9268H71.9447" stroke="#333333" stroke-linecap="round" stroke-linejoin="round"/>
</svg>
