<svg width="132" height="78" viewBox="0 0 132 78" fill="none" xmlns="http://www.w3.org/2000/svg">
<path d="M45.8703 49.0901V47.7617C45.8544 47.563 45.8544 47.3633 45.8703 47.1646H25.9529V52.6149H47.293V50.3032H47.0188C46.7033 50.292 46.4052 50.158 46.1899 49.9306C45.9746 49.7031 45.8597 49.4009 45.8703 49.0901V49.0901Z" fill="#FFDE99" stroke="#333333" stroke-miterlimit="10" stroke-linecap="round" stroke-linejoin="round"/>
<path d="M45.8703 46.5508C45.8859 46.2657 46.0154 45.9982 46.2306 45.8069C46.4459 45.6156 46.7292 45.5161 47.0188 45.5301H47.293V41.7148H25.9529V47.1652H45.8703V46.5508Z" fill="#FF8C00" stroke="#333333" stroke-miterlimit="10" stroke-linecap="round" stroke-linejoin="round"/>
<path d="M25.9529 72.8573H47.293V52.6133H25.9529V72.8573Z" fill="#FF8C00" stroke="#333333" stroke-miterlimit="10" stroke-linecap="round" stroke-linejoin="round"/>
<path d="M36.6204 72.8561H42.5483V63.8148L41.8195 63.1764C41.9555 56.9599 36.6204 55.7266 36.6204 55.7266C36.6204 55.7266 31.2846 56.9599 31.419 63.1764L30.6926 63.8148V72.8561H36.6204Z" fill="#FFDE99" stroke="#333333" stroke-miterlimit="10" stroke-linecap="round" stroke-linejoin="round"/>
<path d="M78.2431 45.605H55.0678V49.2645C55.0667 49.4155 55.0355 49.5648 54.9759 49.704C54.9163 49.8431 54.8294 49.9693 54.7203 50.0754C54.6111 50.1814 54.4818 50.2653 54.3398 50.3221C54.1978 50.379 54.0458 50.4077 53.8925 50.4067H53.6143V72.8565H79.6966V50.4067V50.3756H79.4168C79.1074 50.3768 78.81 50.2571 78.59 50.0427C78.37 49.8283 78.2452 49.5366 78.2431 49.2318V45.605Z" fill="#FF8C00" stroke="#333333" stroke-miterlimit="10" stroke-linecap="round" stroke-linejoin="round"/>
<path d="M86.0183 39.043C86.0162 39.3408 85.8941 39.6257 85.6789 39.8349C85.4637 40.0441 85.173 40.1606 84.8706 40.1587H79.259C78.957 40.1602 78.6669 40.0435 78.4523 39.8342C78.2377 39.625 78.1162 39.3404 78.1145 39.043V37.3814C78.1152 37.234 78.1454 37.0882 78.2034 36.9524C78.2614 36.8165 78.346 36.6933 78.4523 36.5896C78.5587 36.486 78.6848 36.404 78.8233 36.3485C78.9618 36.2929 79.1102 36.2647 79.2598 36.2656H84.8714C85.0211 36.2647 85.1695 36.2929 85.3081 36.3484C85.4468 36.404 85.5729 36.4859 85.6794 36.5895C85.7859 36.6931 85.8706 36.8164 85.9288 36.9523C85.9869 37.0881 86.0173 37.234 86.0183 37.3814V39.043Z" fill="white"/>
<path d="M86.0183 39.043C86.0162 39.3408 85.8941 39.6257 85.6789 39.8349C85.4637 40.0441 85.173 40.1606 84.8706 40.1587H79.259C78.957 40.1602 78.6669 40.0435 78.4523 39.8342C78.2377 39.625 78.1162 39.3404 78.1145 39.043V37.3814C78.1152 37.234 78.1454 37.0882 78.2034 36.9524C78.2614 36.8165 78.346 36.6933 78.4523 36.5896C78.5587 36.486 78.6848 36.404 78.8233 36.3485C78.9618 36.2929 79.1102 36.2647 79.2598 36.2656H84.8714C85.0211 36.2647 85.1695 36.2929 85.3081 36.3484C85.4468 36.404 85.5729 36.4859 85.6794 36.5895C85.7859 36.6931 85.8706 36.8164 85.9288 36.9523C85.9869 37.0881 86.0173 37.234 86.0183 37.3814V39.043Z" stroke="#333333" stroke-miterlimit="10" stroke-linecap="round" stroke-linejoin="round"/>
<path d="M54.5627 38.6016V39.2595C54.5615 39.5164 54.4705 39.7651 54.3049 39.9637C54.1394 40.1623 53.9094 40.2985 53.6538 40.3496L53.6143 40.3877V45.6091H66.2603V38.6016H54.5627Z" fill="#FFDE99" stroke="#333333" stroke-miterlimit="10" stroke-linecap="round" stroke-linejoin="round"/>
<path d="M77.9711 39.2688L77.9593 39.2572V38.6016H66.2617V45.6091H78.9077V40.3924L78.8413 40.3106C78.6005 40.2548 78.3849 40.1227 78.2277 39.9345C78.0704 39.7463 77.9803 39.5124 77.9711 39.2688V39.2688Z" fill="#FFDE99" stroke="#333333" stroke-miterlimit="10" stroke-linecap="round" stroke-linejoin="round"/>
<path d="M52.0321 36.2654H48.8745L48.8785 31.5938H52.036L52.0321 36.2654Z" fill="#FFDE99" stroke="#333333" stroke-miterlimit="10" stroke-linecap="round" stroke-linejoin="round"/>
<path d="M52.036 27.6978H48.8745L48.8785 23.8047H52.036V27.6978Z" fill="#FFDE99" stroke="#333333" stroke-miterlimit="10" stroke-linecap="round" stroke-linejoin="round"/>
<path d="M53.6148 45.6075H47.2917V40.1572H53.6148V45.6075Z" fill="#FFDE99" stroke="#333333" stroke-miterlimit="10" stroke-linecap="round" stroke-linejoin="round"/>
<path d="M53.6148 72.8611H47.2917V50.2812H53.6148V72.8611Z" fill="#FFDE99" stroke="#333333" stroke-miterlimit="10" stroke-linecap="round" stroke-linejoin="round"/>
<path d="M52.829 22.5053C52.8912 21.7596 52.6888 21.0158 52.2564 20.4006C51.824 19.7855 51.1883 19.3373 50.4579 19.1323C49.7273 19.3371 49.0916 19.7854 48.6592 20.4005C48.2267 21.0157 48.0244 21.7596 48.0867 22.5053V22.5419C48.0867 23.238 48.5199 23.804 49.0526 23.804H51.8632C52.3959 23.804 52.829 23.238 52.829 22.5419V22.5053Z" fill="#FF8C00" stroke="#333333" stroke-miterlimit="10" stroke-linecap="round" stroke-linejoin="round"/>
<path d="M50.4573 18.7447V16.0195" stroke="#333333" stroke-miterlimit="10" stroke-linecap="round" stroke-linejoin="round"/>
<path d="M52.8242 30.361C52.842 30.6675 52.7366 30.9685 52.5309 31.199C52.3251 31.4295 52.0356 31.571 51.7248 31.5928H48.391C48.0802 31.571 47.7906 31.4295 47.5848 31.199C47.3791 30.9685 47.2737 30.6675 47.2915 30.361V28.9323C47.2735 28.6257 47.3788 28.3244 47.5845 28.0938C47.7903 27.8631 48.08 27.7215 48.391 27.6997H51.7248C52.0357 27.7215 52.3254 27.8631 52.5312 28.0938C52.7369 28.3244 52.8422 28.6257 52.8242 28.9323V30.361Z" fill="#FF8C00" stroke="#333333" stroke-miterlimit="10" stroke-linecap="round" stroke-linejoin="round"/>
<path d="M54.4052 39.0438C54.4031 39.3411 54.2814 39.6255 54.0667 39.8346C53.852 40.0436 53.5618 40.1602 53.26 40.1587H47.6483C47.3462 40.1606 47.0556 40.0442 46.8406 39.8351C46.6255 39.626 46.5036 39.3414 46.5015 39.0438V37.3806C46.5025 37.2332 46.533 37.0874 46.5912 36.9516C46.6495 36.8157 46.7343 36.6925 46.8409 36.589C46.9474 36.4855 47.0737 36.4036 47.2123 36.3481C47.351 36.2927 47.4994 36.2646 47.6491 36.2657H53.2608C53.5625 36.2644 53.8524 36.3811 54.0669 36.5901C54.2815 36.7991 54.4031 37.0834 54.4052 37.3806V39.0438Z" fill="#FF8C00" stroke="#333333" stroke-miterlimit="10" stroke-linecap="round" stroke-linejoin="round"/>
<path d="M78.2316 38.6013V37.5019C78.2333 37.1998 78.3566 36.9108 78.5745 36.6982C78.7923 36.4857 79.0869 36.367 79.3935 36.3682H80.485V31.5938H52.0315V36.3986H53.1238C53.4302 36.3973 53.7246 36.516 53.9423 36.7284C54.16 36.9408 54.2832 37.2296 54.2849 37.5315V38.6013H78.2316Z" fill="#FF8C00" stroke="#333333" stroke-miterlimit="10" stroke-linecap="round" stroke-linejoin="round"/>
<path d="M83.649 36.2654H80.4875L80.4915 31.5938H83.649V36.2654Z" fill="#FFDE99" stroke="#333333" stroke-miterlimit="10" stroke-linecap="round" stroke-linejoin="round"/>
<path d="M83.649 27.6978H80.4875L80.4915 23.8047H83.649V27.6978Z" fill="#FFDE99" stroke="#333333" stroke-miterlimit="10" stroke-linecap="round" stroke-linejoin="round"/>
<path d="M85.23 45.6075H78.907V40.1572H85.2252L85.23 45.6075Z" fill="#FFDE99" stroke="#333333" stroke-miterlimit="10" stroke-linecap="round" stroke-linejoin="round"/>
<path d="M85.2299 72.8611H79.6973V50.2812H85.2299V72.8611Z" fill="#FFDE99" stroke="#333333" stroke-miterlimit="10" stroke-linecap="round" stroke-linejoin="round"/>
<path d="M84.4399 22.5053C84.502 21.7596 84.2995 21.0158 83.8671 20.4008C83.4347 19.7857 82.7992 19.3374 82.0688 19.1323C81.3385 19.3375 80.703 19.7859 80.2707 20.4009C79.8383 21.0159 79.6358 21.7596 79.6977 22.5053V22.5419C79.6977 23.238 80.1292 23.804 80.6619 23.804H83.4733C84.006 23.804 84.4399 23.238 84.4399 22.5419V22.5053Z" fill="#FF8C00" stroke="#333333" stroke-miterlimit="10" stroke-linecap="round" stroke-linejoin="round"/>
<path d="M82.0725 18.7447V16.0195" stroke="#333333" stroke-miterlimit="10" stroke-linecap="round" stroke-linejoin="round"/>
<path d="M84.4416 30.3602C84.4596 30.6668 84.3544 30.968 84.1486 31.1987C83.9428 31.4294 83.6531 31.571 83.3422 31.5928H80.0084C79.6974 31.571 79.4077 31.4294 79.202 31.1987C78.9962 30.968 78.8909 30.6668 78.909 30.3602V28.9315C78.8911 28.625 78.9965 28.324 79.2023 28.0935C79.408 27.863 79.6976 27.7215 80.0084 27.6997H83.3422C83.653 27.7215 83.9426 27.863 84.1483 28.0935C84.3541 28.324 84.4594 28.625 84.4416 28.9315V30.3602Z" fill="#FF8C00" stroke="#333333" stroke-miterlimit="10" stroke-linecap="round" stroke-linejoin="round"/>
<path d="M86.0183 39.043C86.0162 39.3408 85.8941 39.6257 85.6789 39.8349C85.4637 40.0441 85.173 40.1606 84.8706 40.1587H79.259C78.957 40.1602 78.6669 40.0435 78.4523 39.8342C78.2377 39.625 78.1162 39.3404 78.1145 39.043V37.3814C78.1152 37.234 78.1454 37.0882 78.2034 36.9524C78.2614 36.8165 78.346 36.6933 78.4523 36.5896C78.5587 36.486 78.6848 36.404 78.8233 36.3485C78.9618 36.2929 79.1102 36.2647 79.2598 36.2656H84.8714C85.0211 36.2647 85.1695 36.2929 85.3081 36.3484C85.4468 36.404 85.5729 36.4859 85.6794 36.5895C85.7859 36.6931 85.8706 36.8164 85.9288 36.9523C85.9869 37.0881 86.0173 37.234 86.0183 37.3814V39.043Z" fill="#FF8C00" stroke="#333333" stroke-miterlimit="10" stroke-linecap="round" stroke-linejoin="round"/>
<path d="M86.8086 49.1633C86.8087 49.3094 86.7796 49.4541 86.723 49.5891C86.6663 49.7241 86.5832 49.8468 86.4784 49.9502C86.3736 50.0536 86.2491 50.1357 86.1121 50.1917C85.9752 50.2477 85.8283 50.2766 85.68 50.2767H79.2432C78.9437 50.2763 78.6566 50.1588 78.445 49.95C78.2334 49.7412 78.1145 49.4583 78.1145 49.1633V46.7184C78.1143 46.5723 78.1433 46.4275 78.2 46.2924C78.2566 46.1574 78.3397 46.0346 78.4445 45.9312C78.5493 45.8278 78.6738 45.7457 78.8109 45.6898C78.9479 45.6338 79.0948 45.605 79.2432 45.605H85.68C85.8284 45.6049 85.9753 45.6336 86.1124 45.6896C86.2495 45.7455 86.374 45.8275 86.4789 45.931C86.5837 46.0344 86.6668 46.1572 86.7234 46.2923C86.78 46.4274 86.809 46.5722 86.8086 46.7184V49.1633Z" fill="#FF8C00" stroke="#333333" stroke-miterlimit="10" stroke-linecap="round" stroke-linejoin="round"/>
<path d="M55.1998 49.1642C55.1855 49.4724 55.0479 49.7624 54.8172 49.971C54.5865 50.1796 54.2813 50.2899 53.9684 50.2776H46.9467C46.6338 50.2899 46.3287 50.1796 46.098 49.971C45.8673 49.7624 45.7297 49.4724 45.7153 49.1642V46.7193C45.7297 46.4111 45.8673 46.1211 46.098 45.9125C46.3287 45.7039 46.6338 45.5936 46.9467 45.6059H53.9684C54.2813 45.5936 54.5865 45.7039 54.8172 45.9125C55.0479 46.1211 55.1855 46.4111 55.1998 46.7193V49.1642Z" fill="#FF8C00" stroke="#333333" stroke-miterlimit="10" stroke-linecap="round" stroke-linejoin="round"/>
<path d="M65.8649 72.8558H74.9543V60.1169L73.839 59.2184C74.0445 50.459 65.8649 48.7188 65.8649 48.7188C65.8649 48.7188 57.6854 50.459 57.8909 59.2184L56.7756 60.1169V72.8558H65.8649Z" fill="#FFDE99" stroke="#333333" stroke-miterlimit="10" stroke-linecap="round" stroke-linejoin="round"/>
<path d="M85.2336 72.8573H106.574V52.6133H85.2336V72.8573Z" fill="#FF8C00" stroke="#333333" stroke-miterlimit="10" stroke-linecap="round" stroke-linejoin="round"/>
<path d="M85.2336 41.7148V45.5028H85.5063C85.796 45.488 86.0797 45.5869 86.2954 45.778C86.511 45.9691 86.6408 46.2367 86.6563 46.522V47.1652H106.574V41.7148H85.2336Z" fill="#FF8C00" stroke="#333333" stroke-miterlimit="10" stroke-linecap="round" stroke-linejoin="round"/>
<path d="M86.6563 47.1646C86.6723 47.3633 86.6723 47.563 86.6563 47.7617C86.6563 47.7726 86.6563 47.7804 86.6563 47.7874V49.0566C86.6622 49.2107 86.6371 49.3645 86.5823 49.5091C86.5276 49.6536 86.4443 49.786 86.3373 49.8987C86.2303 50.0113 86.1017 50.1019 85.9589 50.1654C85.8162 50.2288 85.6621 50.2637 85.5055 50.2681H85.2336V52.6149H106.574V47.1646H86.6563Z" fill="#FFDE99" stroke="#333333" stroke-miterlimit="10" stroke-linecap="round" stroke-linejoin="round"/>
<path d="M95.9015 72.8561H89.9736V63.8148L90.7024 63.1764C90.5664 56.9599 95.9015 55.7266 95.9015 55.7266C95.9015 55.7266 101.237 56.9599 101.103 63.1764L101.829 63.8148V72.8561H95.9015Z" fill="#FFDE99"/>
<path d="M95.9015 72.8561H89.9736V63.8148L90.7024 63.1764C90.5664 56.9599 95.9015 55.7266 95.9015 55.7266C95.9015 55.7266 101.237 56.9599 101.103 63.1764L101.829 63.8148V72.8561H95.9015Z" stroke="#333333" stroke-miterlimit="10" stroke-linecap="round" stroke-linejoin="round"/>
<path d="M18.4077 73L114.81 73" stroke="#333333" stroke-linecap="round" stroke-linejoin="round"/>
</svg>
