<svg width="132" height="78" viewBox="0 0 132 78" fill="none" xmlns="http://www.w3.org/2000/svg">
<path d="M52.9899 30.5346C53.4085 31.713 54.2642 33.4328 55.3031 33.552C55.3778 33.5606 55.4524 33.5416 55.5201 33.509L58.3208 32.1583C58.4408 32.1004 58.5327 31.9971 58.5762 31.8712L59.7184 28.5662C59.8546 28.1722 59.4771 27.7944 59.083 27.9301L53.2938 29.9244C53.0408 30.0115 52.9003 30.2824 52.9899 30.5346Z" fill="#FFF8E6" stroke="#333333" stroke-linecap="round" stroke-linejoin="round"/>
<path d="M79.5536 51.7065C79.1317 50.5292 78.2713 48.8117 77.232 48.6951C77.1573 48.6867 77.0828 48.7059 77.0151 48.7387L74.2182 50.0967C74.0984 50.1549 74.0068 50.2584 73.9636 50.3844L72.8307 53.6924C72.6956 54.0868 73.0741 54.4636 73.4679 54.3268L79.2515 52.3175C79.5043 52.2297 79.6439 51.9584 79.5536 51.7065Z" fill="#FFF8E6" stroke="#333333" stroke-linecap="round" stroke-linejoin="round"/>
<path d="M65.293 18.3076L50.9929 26.3164C50.3614 26.6701 49.9702 27.3375 49.9702 28.0614V28.6067C49.9702 29.5792 50.7586 30.3675 51.7311 30.3675C51.9295 30.3675 52.1266 30.334 52.3139 30.2683L57.6979 28.3799L63.0113 27.1972C63.8403 27.0127 64.6954 27.3719 65.144 28.093L65.5079 28.6779C65.7852 29.1238 66.2268 29.4427 66.7373 29.5658L73.7618 31.2597C74.0397 31.3267 74.3288 31.3333 74.6095 31.2792L78.9861 30.4349C79.2171 30.3903 79.4384 30.3054 79.6399 30.1839L85.5056 26.6479C86.5809 25.9996 86.7999 24.5323 85.9607 23.5983L81.8022 18.9703C81.2475 18.3529 80.369 18.1423 79.5947 18.4411L76.2743 19.7221C75.9183 19.8595 75.5304 19.8921 75.1564 19.8162L66.6683 18.0926C66.1989 17.9972 65.7109 18.0735 65.293 18.3076Z" fill="#FFF8E6" stroke="#333333" stroke-linecap="round" stroke-linejoin="round"/>
<path d="M66.5862 64.0806L80.8862 56.0718C81.5178 55.7181 81.9089 55.0507 81.9089 54.3268V53.7815C81.9089 52.809 81.1206 52.0206 80.1481 52.0206C79.9496 52.0206 79.7526 52.0542 79.5653 52.1199L74.1813 54.0083L68.8679 55.191C68.0389 55.3755 67.1837 55.0163 66.7351 54.2951L66.3713 53.7102C66.0939 53.2644 65.6523 52.9455 65.1419 52.8224L58.1173 51.1285C57.8394 51.0615 57.5504 51.0548 57.2697 51.109L52.893 51.9533C52.662 51.9978 52.4407 52.0828 52.2393 52.2042L46.3736 55.7403C45.2982 56.3886 45.0792 57.8559 45.9185 58.7899L50.0769 63.4179C50.6317 64.0353 51.5101 64.2459 52.2845 63.9471L55.6049 62.6661C55.9609 62.5287 56.3488 62.4961 56.7228 62.572L65.2109 64.2956C65.6803 64.3909 66.1683 64.3146 66.5862 64.0806Z" fill="#FFF8E6" stroke="#333333" stroke-linecap="round" stroke-linejoin="round"/>
<path d="M61.419 39.3969C60.5216 43.0289 64.7865 46.5938 68.0542 47.3966C71.3219 46.5938 75.6306 42.9789 74.7331 39.3469C74.1405 36.9484 70.5415 36.9992 68.0534 40.1967C65.5652 36.9992 62.0117 36.9984 61.419 39.3969Z" fill="#FF6B00" stroke="#333333" stroke-linecap="round" stroke-linejoin="round"/>
<path d="M67.5344 55.0806L61.8674 56.0744" stroke="#333333" stroke-linecap="round" stroke-linejoin="round"/>
<path d="M63.1953 27.1309L68.3471 25.6401" stroke="#333333" stroke-linecap="round" stroke-linejoin="round"/>
<rect width="16.1148" height="11.1903" rx="1" transform="matrix(0.614976 0.788546 -0.809396 0.587263 88.3945 9)" fill="#38C1C9" stroke="#333333" stroke-linecap="round" stroke-linejoin="round"/>
<path d="M42.248 54.3085C42.695 53.9841 43.3327 54.0742 43.6723 54.5097L52.3526 65.6399C52.6922 66.0754 52.6052 66.6914 52.1582 67.0157L44.7196 72.4128C44.2725 72.7372 43.6348 72.647 43.2952 72.2115L34.6149 61.0814C34.2753 60.6459 34.3623 60.0299 34.8094 59.7056L42.248 54.3085Z" fill="#38C1C9" stroke="#333333" stroke-linecap="round" stroke-linejoin="round"/>
</svg>
