<svg width="132" height="78" viewBox="0 0 132 78" fill="none" xmlns="http://www.w3.org/2000/svg">
<ellipse cx="65.5588" cy="40.1484" rx="33.1765" ry="32" fill="#0598A8" stroke="#333333"/>
<ellipse cx="65.7324" cy="40.314" rx="29.5478" ry="28.5" fill="#FFEF85" stroke="#333333"/>
<path d="M57.956 21.8169L56.4009 18.8169" stroke="#333333" stroke-width="1.25" stroke-linecap="round"/>
<path d="M51.2169 26.3154L48.625 23.8154" stroke="#333333" stroke-width="1.25" stroke-linecap="round"/>
<path d="M46.5506 33.313L42.9219 31.813" stroke="#333333" stroke-width="1.25" stroke-linecap="round"/>
<path d="M45.5142 40.8154H41.3672M46.551 48.8154L42.9223 50.3154" stroke="#333333" stroke-width="1.25" stroke-linecap="round"/>
<path d="M51.2169 55.3135L48.625 57.8135" stroke="#333333" stroke-width="1.25" stroke-linecap="round"/>
<path d="M58.4746 59.8154L56.9194 62.8154" stroke="#333333" stroke-width="1.25" stroke-linecap="round"/>
<path d="M66.25 60.8154V64.8154" stroke="#333333" stroke-width="1.25" stroke-linecap="round"/>
<path d="M74.5444 59.8154L76.618 63.3154" stroke="#333333" stroke-width="1.25" stroke-linecap="round"/>
<path fill-rule="evenodd" clip-rule="evenodd" d="M65.9043 17.9471V41.1213L82.7894 57.4076C87.492 53.2538 90.4408 47.2829 90.4408 40.6477C90.4408 28.0998 79.8947 17.9277 66.8855 17.9277C66.5568 17.9277 66.2297 17.9342 65.9043 17.9471Z" fill="#B5F3F2"/>
<path d="M65.9043 41.1213H65.2793C65.2793 41.2909 65.3483 41.4533 65.4704 41.5711L65.9043 41.1213ZM65.9043 17.9471L65.8796 17.3226C65.5443 17.3358 65.2793 17.6115 65.2793 17.9471H65.9043ZM82.7894 57.4076L82.3555 57.8574C82.59 58.0836 82.9589 58.0917 83.2031 57.876L82.7894 57.4076ZM66.5293 41.1213V17.9471H65.2793V41.1213H66.5293ZM83.2233 56.9577L66.3382 40.6714L65.4704 41.5711L82.3555 57.8574L83.2233 56.9577ZM89.8158 40.6477C89.8158 47.0922 86.9527 52.8962 82.3756 56.9391L83.2031 57.876C88.0312 53.6114 91.0658 47.4736 91.0658 40.6477H89.8158ZM66.8855 18.5527C79.571 18.5527 89.8158 28.4661 89.8158 40.6477H91.0658C91.0658 27.7336 80.2185 17.3027 66.8855 17.3027V18.5527ZM65.929 18.5716C66.2462 18.5591 66.5651 18.5527 66.8855 18.5527V17.3027C66.5486 17.3027 66.2133 17.3094 65.8796 17.3226L65.929 18.5716Z" fill="#333333"/>
<path d="M78.6912 53.313C89.0588 42.313 83.3566 25.813 66.25 23.313" stroke="#333333" stroke-width="1.25"/>
<path d="M79.2096 29.3154L78.1729 32.8154" stroke="#333333" stroke-width="1.25" stroke-linecap="round"/>
<path d="M79.2095 29.3154L82.8386 28.8154" stroke="#333333" stroke-width="1.25" stroke-linecap="round"/>
</svg>
