<svg width="132" height="78" viewBox="0 0 132 78" fill="none" xmlns="http://www.w3.org/2000/svg">
<path fill-rule="evenodd" clip-rule="evenodd" d="M62.1227 47.5775C62.8072 41.3363 58.3026 35.722 52.0614 35.0375C45.8203 34.353 40.2059 38.8576 39.5214 45.0987L38.8746 50.9968L38.2277 56.8949C38.2091 57.0645 38.1944 57.2336 38.1833 57.4022C38.1116 57.8684 38.0847 58.4166 38.1081 59.0535C38.4419 68.1192 43.103 72.0651 50.8482 72.7027C51.2423 72.7644 51.6464 72.7965 52.0579 72.7965H53.1953C53.21 72.7965 53.2247 72.7965 53.2394 72.7965C53.2394 72.7965 53.2394 72.7965 53.2394 72.7965L75.8376 72.7964C80.1201 72.7964 83.5918 69.3247 83.5918 65.0422C83.5918 60.7597 80.1201 57.288 75.8376 57.288L61.0577 57.288L62.1227 47.5775Z" fill="#FF8C00"/>
<path d="M52.0614 35.0375L52.0069 35.5345L52.0069 35.5345L52.0614 35.0375ZM62.1227 47.5775L61.6257 47.523L62.1227 47.5775ZM39.5214 45.0987L40.0184 45.1533L39.5214 45.0987ZM38.8746 50.9968L38.3776 50.9423L38.3776 50.9423L38.8746 50.9968ZM38.2277 56.8949L38.7247 56.9494L38.7247 56.9494L38.2277 56.8949ZM38.1833 57.4022L38.6823 57.4348L38.6809 57.4566L38.6775 57.4782L38.1833 57.4022ZM38.1081 59.0535L38.6078 59.0352L38.6078 59.0352L38.1081 59.0535ZM50.8482 72.7027L50.8892 72.2043L50.9074 72.2058L50.9255 72.2087L50.8482 72.7027ZM53.1953 72.7965L53.1953 72.2965L53.196 72.2965L53.1953 72.7965ZM53.2394 72.7965L53.6394 73.0965L53.4894 73.2965H53.2394V72.7965ZM53.2394 72.7965L52.8394 72.4965L52.9894 72.2965L53.2394 72.2965L53.2394 72.7965ZM75.8376 72.7964L75.8376 72.2964L75.8376 72.2964L75.8376 72.7964ZM75.8376 57.288L75.8376 56.788L75.8376 56.788L75.8376 57.288ZM61.0577 57.288L61.0577 57.788L60.4999 57.788L60.5607 57.2335L61.0577 57.288ZM52.1159 34.5405C58.6316 35.2551 63.3343 41.1163 62.6197 47.632L61.6257 47.523C62.28 41.5563 57.9736 36.1889 52.0069 35.5345L52.1159 34.5405ZM39.0244 45.0442C39.739 38.5286 45.6003 33.8259 52.1159 34.5405L52.0069 35.5345C46.0402 34.8801 40.6728 39.1866 40.0184 45.1533L39.0244 45.0442ZM38.3776 50.9423L39.0244 45.0442L40.0184 45.1533L39.3716 51.0513L38.3776 50.9423ZM37.7307 56.8404L38.3776 50.9423L39.3716 51.0513L38.7247 56.9494L37.7307 56.8404ZM37.6844 57.3696C37.6959 57.1937 37.7113 57.0173 37.7307 56.8404L38.7247 56.9494C38.7069 57.1117 38.6928 57.2735 38.6823 57.4348L37.6844 57.3696ZM37.6085 59.0719C37.5841 58.4116 37.6115 57.8308 37.6892 57.3261L38.6775 57.4782C38.6117 57.9061 38.5852 58.4216 38.6078 59.0352L37.6085 59.0719ZM50.8071 73.201C46.8635 72.8763 43.631 71.7034 41.3434 69.3902C39.0532 67.0746 37.7783 63.6856 37.6085 59.0719L38.6078 59.0352C38.7717 63.4872 39.9942 66.604 42.0544 68.6871C44.117 70.7727 47.0877 71.8914 50.8892 72.2043L50.8071 73.201ZM52.0579 73.2965C51.6204 73.2965 51.1905 73.2624 50.7708 73.1966L50.9255 72.2087C51.2942 72.2664 51.6724 72.2965 52.0579 72.2965V73.2965ZM53.1953 73.2965H52.0579V72.2965H53.1953V73.2965ZM53.2394 73.2965C53.2245 73.2965 53.2096 73.2965 53.1947 73.2965L53.196 72.2965C53.2104 72.2965 53.2248 72.2965 53.2394 72.2965V73.2965ZM53.6394 73.0965C53.643 73.0916 53.6458 73.0877 53.647 73.0861C53.6482 73.0844 53.6492 73.0829 53.649 73.0832C53.649 73.0832 53.649 73.0832 53.649 73.0832C53.649 73.0832 53.649 73.0832 53.649 73.0832C53.649 73.0832 53.649 73.0832 53.649 73.0832C53.649 73.0832 53.649 73.0832 53.649 73.0832C53.649 73.0832 53.649 73.0832 53.649 73.0833C53.6489 73.0833 53.6489 73.0833 53.6489 73.0834C53.6488 73.0835 53.6487 73.0837 53.6485 73.0839C53.6482 73.0843 53.6476 73.0851 53.647 73.0861C53.6458 73.0877 53.643 73.0916 53.6394 73.0965L52.8394 72.4965C52.8357 72.5014 52.8329 72.5053 52.8318 72.5069C52.8306 72.5086 52.8296 72.51 52.8298 72.5097C52.8298 72.5097 52.8298 72.5097 52.8298 72.5097C52.8298 72.5097 52.8298 72.5097 52.8298 72.5097C52.8298 72.5097 52.8298 72.5097 52.8298 72.5097C52.8298 72.5097 52.8298 72.5097 52.8298 72.5097C52.8298 72.5097 52.8298 72.5097 52.8298 72.5097C52.8298 72.5097 52.8298 72.5096 52.8299 72.5096C52.83 72.5095 52.8301 72.5093 52.8302 72.509C52.8306 72.5086 52.8311 72.5078 52.8318 72.5069C52.8329 72.5052 52.8357 72.5013 52.8394 72.4965L53.6394 73.0965ZM75.8376 73.2964L53.2394 73.2965L53.2394 72.2965L75.8376 72.2964L75.8376 73.2964ZM84.0918 65.0422C84.0918 69.6009 80.3963 73.2964 75.8376 73.2964L75.8376 72.2964C79.844 72.2964 83.0918 69.0486 83.0918 65.0422H84.0918ZM75.8376 56.788C80.3963 56.788 84.0918 60.4835 84.0918 65.0422H83.0918C83.0918 61.0358 79.844 57.788 75.8376 57.788L75.8376 56.788ZM61.0577 56.788L75.8376 56.788L75.8376 57.788L61.0577 57.788L61.0577 56.788ZM62.6197 47.632L61.5547 57.3425L60.5607 57.2335L61.6257 47.523L62.6197 47.632Z" fill="#333333"/>
<path d="M77.5735 51.0418C78.209 52.3127 77.6492 55.6592 78.209 58.6669H61.3975C45.7222 58.6669 44.3699 47.4481 44.0428 45.6963C43.2611 41.5106 44.0428 33.8534 54.6795 33.2895C65.3163 32.7256 68.0423 44.5684 68.0423 47.9519C68.0423 50.2774 76.3027 48.5005 77.5735 51.0418Z" fill="#FFAE00" stroke="#333333"/>
<path d="M87.1858 65.0207L83.3733 62.479C82.3142 62.479 80.3233 62.7332 80.8316 63.7498C81.3399 64.7665 82.3142 66.2915 82.7378 66.9269L87.8212 69.4686C90.3628 70.7394 94.1753 66.9269 93.5399 66.9269C93.0316 66.9269 89.9392 65.6561 87.1858 65.0207Z" fill="#FFDE99" stroke="#333333" stroke-linecap="round" stroke-linejoin="round"/>
<path d="M89.0094 67.689H87.1032L84.5615 69.5952C84.7733 70.4424 85.324 72.2639 85.8324 72.7723C86.4678 73.4077 96.6344 67.0536 95.3636 66.4182C94.3469 65.9098 90.7039 67.0536 89.0094 67.689Z" fill="#FFDE99" stroke="#333333"/>
<path d="M35 72.7964H96" stroke="#333333" stroke-linecap="round" stroke-linejoin="round"/>
<path d="M74.2591 49.9677L67.6287 49.7482C66.0903 49.0071 64.0986 47.4878 68.4392 47.3392C72.7799 47.1906 74.1277 49.0296 74.2591 49.9677Z" fill="#FFDE99" stroke="#333333" stroke-linecap="round" stroke-linejoin="round"/>
<path fill-rule="evenodd" clip-rule="evenodd" d="M58.509 34.521C57.4562 34.521 56.6027 35.3745 56.6027 36.4272V46.5939C56.6027 46.6442 56.6046 46.694 56.6085 46.7433C56.6045 46.7919 56.6025 46.841 56.6025 46.8908C56.6025 47.8056 57.2932 48.5728 58.203 48.6686L68.6755 49.7709V47.2293L60.4152 45.4903V36.4272C60.4152 35.3745 59.5617 34.521 58.509 34.521Z" fill="#0598A8"/>
<path d="M56.6085 46.7433L57.1068 46.7836C57.109 46.7573 57.109 46.7309 57.107 46.7047L56.6085 46.7433ZM56.6025 46.8908L57.1025 46.8908L56.6025 46.8908ZM58.203 48.6686L58.1507 49.1658L58.1507 49.1658L58.203 48.6686ZM68.6755 49.7709L68.6231 50.2682C68.7641 50.283 68.9047 50.2374 69.01 50.1425C69.1153 50.0477 69.1755 49.9127 69.1755 49.7709H68.6755ZM68.6755 47.2293H69.1755C69.1755 46.9928 69.0098 46.7887 68.7785 46.74L68.6755 47.2293ZM60.4152 45.4903H59.9152C59.9152 45.7267 60.0808 45.9308 60.3122 45.9795L60.4152 45.4903ZM57.1027 36.4272C57.1027 35.6506 57.7323 35.021 58.509 35.021V34.021C57.18 34.021 56.1027 35.0983 56.1027 36.4272H57.1027ZM57.1027 46.5939V36.4272H56.1027V46.5939H57.1027ZM57.107 46.7047C57.1041 46.6682 57.1027 46.6313 57.1027 46.5939H56.1027C56.1027 46.6571 56.1051 46.7198 56.11 46.7819L57.107 46.7047ZM57.1025 46.8908C57.1025 46.8545 57.104 46.8187 57.1068 46.7836L56.1101 46.703C56.1051 46.765 56.1025 46.8276 56.1025 46.8908L57.1025 46.8908ZM58.2554 48.1713C57.6 48.1023 57.1025 47.5497 57.1025 46.8908L56.1025 46.8908C56.1025 48.0615 56.9864 49.0433 58.1507 49.1658L58.2554 48.1713ZM68.7278 49.2737L58.2554 48.1713L58.1507 49.1658L68.6231 50.2682L68.7278 49.2737ZM68.1755 47.2293V49.7709H69.1755V47.2293H68.1755ZM60.3122 45.9795L68.5725 47.7185L68.7785 46.74L60.5182 45.001L60.3122 45.9795ZM59.9152 36.4272V45.4903H60.9152V36.4272H59.9152ZM58.509 35.021C59.2856 35.021 59.9152 35.6506 59.9152 36.4272H60.9152C60.9152 35.0983 59.8379 34.021 58.509 34.021V35.021Z" fill="#333333"/>
<path fill-rule="evenodd" clip-rule="evenodd" d="M72.6988 56.1584H57.0271C54.6876 56.1584 52.791 54.2618 52.791 51.9223C52.791 51.4544 53.1703 51.0751 53.6382 51.0751L72.0211 51.0751C73.1607 50.4483 74.6214 50.6179 75.5873 51.5838L88.0288 64.0253C88.4219 64.4183 88.419 65.0565 88.0223 65.4459L86.4925 66.9481C86.12 67.3138 85.5288 67.3315 85.1352 66.9886L72.6988 56.1584Z" fill="#666666"/>
<path d="M72.6988 56.1584L73.0272 55.7813C72.9362 55.7021 72.8195 55.6584 72.6988 55.6584V56.1584ZM53.6382 51.0751V50.5751V51.0751ZM72.0211 51.0751L72.0211 51.5751C72.1053 51.5751 72.1882 51.5538 72.262 51.5132L72.0211 51.0751ZM75.5873 51.5838L75.9409 51.2302L75.9409 51.2302L75.5873 51.5838ZM88.0288 64.0253L87.6753 64.3788L88.0288 64.0253ZM88.0223 65.4459L88.3726 65.8027L88.3726 65.8027L88.0223 65.4459ZM86.4925 66.9481L86.8428 67.3048L86.8428 67.3048L86.4925 66.9481ZM85.1352 66.9886L84.8068 67.3657L84.8068 67.3657L85.1352 66.9886ZM72.6988 55.6584H57.0271V56.6584H72.6988V55.6584ZM57.0271 55.6584C54.9637 55.6584 53.291 53.9857 53.291 51.9223H52.291C52.291 54.538 54.4114 56.6584 57.0271 56.6584V55.6584ZM53.291 51.9223C53.291 51.7305 53.4465 51.5751 53.6382 51.5751V50.5751C52.8942 50.5751 52.291 51.1782 52.291 51.9223H53.291ZM53.6382 51.5751L72.0211 51.5751L72.0211 50.5751L53.6382 50.5751L53.6382 51.5751ZM72.262 51.5132C73.212 50.9907 74.4293 51.1329 75.2337 51.9373L75.9409 51.2302C74.8134 50.1028 73.1094 49.9059 71.7801 50.637L72.262 51.5132ZM75.2337 51.9373L87.6753 64.3788L88.3824 63.6717L75.9409 51.2302L75.2337 51.9373ZM87.6753 64.3788C87.8718 64.5754 87.8703 64.8944 87.672 65.0892L88.3726 65.8027C88.9676 65.2185 88.972 64.2613 88.3824 63.6717L87.6753 64.3788ZM87.672 65.0892L86.1422 66.5913L86.8428 67.3048L88.3726 65.8027L87.672 65.0892ZM86.1422 66.5913C85.9559 66.7742 85.6604 66.783 85.4635 66.6116L84.8068 67.3657C85.3973 67.88 86.2841 67.8535 86.8428 67.3048L86.1422 66.5913ZM85.4635 66.6116L73.0272 55.7813L72.3705 56.5355L84.8068 67.3657L85.4635 66.6116Z" fill="#333333"/>
<rect x="54.0625" y="30.7085" width="3.8125" height="3.8125" fill="#FFDE99" stroke="#333333"/>
<path d="M51.521 22.2212H60.4168V29.3879C60.4168 31.0447 59.0737 32.3879 57.4168 32.3879H54.521C52.8641 32.3879 51.521 31.0447 51.521 29.3879V22.2212Z" fill="#FFDE99" stroke="#333333" stroke-linecap="round" stroke-linejoin="round"/>
<path d="M51.521 20C51.521 18.8954 52.4164 18 53.521 18H60.4168V20.8125C60.4168 21.3648 59.9691 21.8125 59.4168 21.8125H51.521V20Z" fill="#666666" stroke="#333333" stroke-linecap="round" stroke-linejoin="round"/>
<path d="M52.792 19C52.792 18.4477 53.2397 18 53.792 18H55.3337V24.3542H52.792V19Z" fill="#FC2D2D" stroke="#333333" stroke-linecap="round" stroke-linejoin="round"/>
<circle cx="54.6992" cy="26.2603" r="1.90625" fill="#FC2D2D" stroke="#333333"/>
<path d="M52.7583 34.2417H59.1975C60.4537 34.2417 61.5149 35.1739 61.6767 36.4197L63.5807 51.081C63.775 52.577 62.6101 53.903 61.1016 53.903H52.7583C51.3776 53.903 50.2583 52.7837 50.2583 51.403V36.7417C50.2583 35.361 51.3776 34.2417 52.7583 34.2417Z" fill="#38C1C9" stroke="#333333"/>
<path fill-rule="evenodd" clip-rule="evenodd" d="M71.4283 58.6667H55.7566C53.4171 58.6667 51.5205 56.7701 51.5205 54.4306C51.5205 53.9627 51.8998 53.5834 52.3677 53.5834L70.7506 53.5834C71.8902 52.9566 73.3509 53.1262 74.3168 54.0921L86.7583 66.5336C87.1514 66.9266 87.1485 67.5648 86.7518 67.9542L85.222 69.4564C84.8495 69.8221 84.2583 69.8398 83.8646 69.4969L71.4283 58.6667Z" fill="#666666"/>
<path d="M71.4283 58.6667L71.7567 58.2896C71.6657 58.2104 71.549 58.1667 71.4283 58.1667V58.6667ZM52.3677 53.5834V53.0834V53.5834ZM70.7506 53.5834L70.7506 54.0834C70.8348 54.0834 70.9177 54.0621 70.9915 54.0215L70.7506 53.5834ZM74.3168 54.0921L74.6703 53.7385L74.6703 53.7385L74.3168 54.0921ZM86.7583 66.5336L86.4048 66.8871L86.7583 66.5336ZM86.7518 67.9542L87.1021 68.311L87.1021 68.311L86.7518 67.9542ZM85.222 69.4564L85.5723 69.8131L85.5723 69.8131L85.222 69.4564ZM83.8646 69.4969L83.5363 69.874L83.5363 69.874L83.8646 69.4969ZM71.4283 58.1667H55.7566V59.1667H71.4283V58.1667ZM55.7566 58.1667C53.6932 58.1667 52.0205 56.494 52.0205 54.4306H51.0205C51.0205 57.0463 53.1409 59.1667 55.7566 59.1667V58.1667ZM52.0205 54.4306C52.0205 54.2388 52.176 54.0834 52.3677 54.0834V53.0834C51.6237 53.0834 51.0205 53.6865 51.0205 54.4306H52.0205ZM52.3677 54.0834L70.7506 54.0834L70.7506 53.0834L52.3677 53.0834L52.3677 54.0834ZM70.9915 54.0215C71.9415 53.499 73.1588 53.6412 73.9632 54.4456L74.6703 53.7385C73.5429 52.6111 71.8389 52.4142 70.5096 53.1453L70.9915 54.0215ZM73.9632 54.4456L86.4048 66.8871L87.1119 66.18L74.6703 53.7385L73.9632 54.4456ZM86.4048 66.8871C86.6013 67.0837 86.5998 67.4027 86.4015 67.5975L87.1021 68.311C87.6971 67.7268 87.7015 66.7696 87.1119 66.18L86.4048 66.8871ZM86.4015 67.5975L84.8717 69.0996L85.5723 69.8131L87.1021 68.311L86.4015 67.5975ZM84.8717 69.0996C84.6854 69.2825 84.3899 69.2913 84.193 69.1199L83.5363 69.874C84.1268 70.3883 85.0136 70.3618 85.5723 69.8131L84.8717 69.0996ZM84.193 69.1199L71.7567 58.2896L71.1 59.0438L83.5363 69.874L84.193 69.1199Z" fill="#333333"/>
<path d="M71.7176 51.2382L65.0872 51.0187C63.5488 50.2776 61.5571 48.7583 65.8977 48.6097C70.2384 48.4611 71.5862 50.3001 71.7176 51.2382Z" fill="#FFDE99" stroke="#333333" stroke-linecap="round" stroke-linejoin="round"/>
<path fill-rule="evenodd" clip-rule="evenodd" d="M55.9675 35.7915C54.9147 35.7915 54.0613 36.645 54.0613 37.6978V47.8644C54.0613 47.9146 54.0632 47.9643 54.067 48.0135C54.0631 48.0622 54.061 48.1115 54.061 48.1614C54.061 49.0762 54.7517 49.8434 55.6615 49.9392L66.134 51.0416V48.4999L57.8738 46.7609V37.6978C57.8738 36.645 57.0203 35.7915 55.9675 35.7915Z" fill="#0598A8"/>
<path d="M54.067 48.0135L54.5654 48.0539C54.5675 48.0277 54.5675 48.0013 54.5655 47.975L54.067 48.0135ZM55.6615 49.9392L55.6092 50.4365L55.6092 50.4365L55.6615 49.9392ZM66.134 51.0416L66.0816 51.5388C66.2225 51.5537 66.3632 51.508 66.4685 51.4132C66.5738 51.3184 66.634 51.1833 66.634 51.0416H66.134ZM66.134 48.4999H66.634C66.634 48.2635 66.4683 48.0593 66.237 48.0106L66.134 48.4999ZM57.8738 46.7609H57.3738C57.3738 46.9974 57.5394 47.2015 57.7707 47.2502L57.8738 46.7609ZM54.5613 37.6978C54.5613 36.9211 55.1909 36.2915 55.9675 36.2915V35.2915C54.6386 35.2915 53.5613 36.3688 53.5613 37.6978H54.5613ZM54.5613 47.8644V37.6978H53.5613V47.8644H54.5613ZM54.5655 47.975C54.5627 47.9386 54.5613 47.9017 54.5613 47.8644H53.5613C53.5613 47.9275 53.5637 47.9901 53.5685 48.0521L54.5655 47.975ZM54.561 48.1614C54.561 48.125 54.5625 48.0892 54.5654 48.0539L53.5686 47.9731C53.5636 48.0353 53.561 48.0981 53.561 48.1614H54.561ZM55.7139 49.442C55.0585 49.373 54.561 48.8204 54.561 48.1614H53.561C53.561 49.3321 54.4449 50.3139 55.6092 50.4365L55.7139 49.442ZM66.1863 50.5443L55.7139 49.442L55.6092 50.4365L66.0816 51.5388L66.1863 50.5443ZM65.634 48.4999V51.0416H66.634V48.4999H65.634ZM57.7707 47.2502L66.0309 48.9892L66.237 48.0106L57.9768 46.2716L57.7707 47.2502ZM57.3738 37.6978V46.7609H58.3738V37.6978H57.3738ZM55.9675 36.2915C56.7442 36.2915 57.3738 36.9211 57.3738 37.6978H58.3738C58.3738 36.3688 57.2964 35.2915 55.9675 35.2915V36.2915Z" fill="#333333"/>
<rect x="62.959" y="51.0415" width="15.25" height="2.54167" rx="1.27083" fill="#BBBBBB" stroke="#333333"/>
<rect x="75.6665" y="51.8853" width="16.837" height="2.54167" rx="1.27083" transform="rotate(-72.9111 75.6665 51.8853)" fill="#BBBBBB" stroke="#333333"/>
</svg>
